<svg height="23" viewBox="0 0 23 23" width="23" xmlns="http://www.w3.org/2000/svg"><path d="m7.6675867 11.5c0-2.117012 1.71577663-3.83364 3.8328733-3.83364 2.1170967 0 3.8337934 1.716628 3.8337934 3.83364s-1.7166967 3.83364-3.8337934 3.83364c-2.11709667 0-3.8328733-1.716628-3.8328733-3.83364m-2.0724749 0c0 3.2614 2.64381776 5.905112 5.9053482 5.905112 3.2615305 0 5.9053482-2.643712 5.9053482-5.905112s-2.6438177-5.905112-5.9053482-5.905112c-3.26153044 0-5.9053482 2.643712-5.9053482 5.905112m10.6644226-6.139252c-.0003048.76215287.6173197 1.38024694 1.3795031 1.38055178.7621833.00030484 1.3803022-.61729499 1.3806071-1.37944785.0003049-.76215287-.6173196-1.38024701-1.379503-1.38055193h-.000552c-.7618208.00035505-1.3793954.61765786-1.3800552 1.379448m-9.40526023 15.499976c-1.12124885-.05106-1.73068123-.23782-2.13568143-.3956-.53693347-.209024-.9200368-.457976-1.32282891-.8602s-.65212208-.784944-.86023441-1.321856c-.15787831-.4048-.34464578-1.014392-.39561582-2.135596-.05575423-1.212192-.06688668-1.576328-.06688668-4.64738s.01205248-3.434176.06688668-4.64738c.05106204-1.121204.23920956-1.7296.39561582-2.135596.20903236-.536912.45799432-.92.86023441-1.322776s.7849754-.652096 1.32282891-.8602c.4048162-.157872 1.01443258-.344632 2.13568143-.3956 1.21224049-.055752 1.57639106-.066884 4.64618583-.066884 3.0697948 0 3.4343134.012052 4.6475659.066884 1.1212489.05106 1.7296692.2392 2.1356814.3956.5369335.208104.9200368.457976 1.322829.8602.4027921.402224.651202.785864.8602344 1.322776.1578783.4048.3446458 1.014392.3956158 2.135596.0557542 1.213204.0668867 1.576328.0668867 4.64738s-.0111325 3.434176-.0668867 4.64738c-.051062 1.121204-.2387496 1.730612-.3956158 2.135596-.2090324.536912-.4579943.92-.8602344 1.321856s-.7858955.651176-1.322829.8602c-.4048161.157872-1.0144325.344632-2.1356814.3956-1.2122405.055752-1.576391.066884-4.6475659.066884-3.07117483 0-3.43431335-.011132-4.64618583-.066884m-.09522381-20.79108c-1.22429297.055752-2.06088243.249872-2.79148366.534152-.75663826.293572-1.39716788.687424-2.03723749 1.326456-.6400696.639032-1.03292531 1.280548-1.32650906 2.037156-.28429137.731032-.47841913 1.567128-.53417336 2.791372-.05667427 1.226176-.06964679 1.618188-.06964679 4.74122s.01297252 3.515044.06964679 4.74122c.05575423 1.224336.24988199 2.06034.53417336 2.791372.29358375.756148.68653146 1.3984 1.32650906 2.037156s1.28059923 1.032056 2.03723749 1.326456c.73198128.28428 1.56719069.4784 2.79148366.534152 1.22686908.055752 1.61825273.069644 4.74140964.069644 3.1231569 0 3.5151846-.012972 4.7414097-.069644 1.224385-.055752 2.0604224-.249872 2.7914836-.534152.7561783-.2944 1.3971679-.687424 2.0372375-1.326456s1.0320973-1.281008 1.3265091-2.037156c.2842914-.731032.4793392-1.567128.5341734-2.791372.0557542-1.227096.0687267-1.618188.0687267-4.74122s-.0129725-3.515044-.0687267-4.74122c-.0557543-1.224336-.249882-2.0608-.5341734-2.791372-.2944118-.756148-.6874515-1.397112-1.3265091-2.037156-.6390575-.640044-1.2810592-1.032884-2.0363174-1.326456-.7319813-.28428-1.5681108-.47932-2.7914837-.534152-1.226225-.055752-1.6182527-.069644-4.7414096-.069644-3.12315697 0-3.51546066.012972-4.74232974.069644" fill="#fff" fill-rule="evenodd"/></svg>