<svg height="21" viewBox="0 0 26 21" width="26" xmlns="http://www.w3.org/2000/svg"><path d="m2.96072878 12.7288299c.30431882.0546952.61782388.083258.93806215.083258.56381589 0 1.10676043-.0885379 1.61544318-.2523467-2.49361605-.3903377-4.40029384-2.5294961-4.40029384-5.10988253 0-.0400198.00045862-.07993346.00137095-.11973612.73834693.41540612 1.58892314.65765005 2.49547416.67099534-1.49768225-.90947582-2.49684511-2.54620325-2.49684511-4.4141489 0-.96983512.26934172-1.87734135.73795557-2.65309433 2.65530205 3.14653237 6.55087524 5.23025114 10.94199776 5.51329574-.0804433-.36590758-.1228231-.74589874-.1228231-1.13569709 0-2.93344585 2.4001286-5.31147331 5.3608376-5.31147331 1.546789 0 2.9405721.64906416 3.9190375 1.68729643 1.2140747-.19108529 2.34246-.63704679 3.3275458-1.28080477-.3633832 1.22918874-1.1903608 2.26214344-2.2806518 2.90042819 1.0672442-.09833871 2.0755643-.38553942 3.0021604-.81662863-.6637944 1.07634626-1.5554554 1.99970471-2.6085282 2.70423237.0008477.03888177.0012738.07786645.0012738.11694972 0 .10363792-.002255.50538551-.002255.60476057 0 8.28603212-6.779584 15.00318762-15.1426255 15.00318762-3.04219428 0-5.87485586-.8888547-8.2478651-2.4187477.4217856.0484934.85082379.0734218 1.28573844.0734218 2.51921344 0 4.84125824-.8364054 6.69868485-2.2442293-2.37813072.0002105-4.35205871-1.5125319-5.02369451-3.6010364z" fill="#fff" fill-rule="evenodd"/></svg>