<?xml version="1.0" standalone="no"?>
<!DOCTYPE svg PUBLIC "-//W3C//DTD SVG 20010904//EN"
 "http://www.w3.org/TR/2001/REC-SVG-20010904/DTD/svg10.dtd">
<svg version="1.0" xmlns="http://www.w3.org/2000/svg"
 width="748.000000pt" height="748.000000pt" viewBox="0 0 748.000000 748.000000"
 preserveAspectRatio="xMidYMid meet">
<metadata>
Created by potrace 1.11, written by Peter Selinger 2001-2013
</metadata>
<g transform="translate(0.000000,748.000000) scale(0.100000,-0.100000)"
fill="#000000" stroke="none">
<path d="M6 5336 c10 -116 27 -175 76 -267 58 -110 180 -225 293 -274 135 -60
90 -58 1170 -60 720 -2 1003 -5 1039 -14 95 -23 201 -85 270 -156 44 -47 103
-142 120 -193 32 -100 35 -174 34 -942 0 -682 2 -782 16 -837 33 -125 88 -224
175 -310 54 -53 175 -133 202 -133 8 0 19 -4 25 -8 16 -14 93 -33 159 -39 l64
-5 -3 1118 c-1 616 -6 1135 -10 1154 -58 280 -158 472 -341 655 -188 189 -378
286 -665 341 -19 4 -618 8 -1331 9 l-1297 3 4 -42z"/>
<path d="M4885 5369 c-38 -5 -90 -13 -115 -19 -25 -7 -52 -13 -60 -15 -75 -16
-257 -97 -333 -149 -21 -14 -40 -26 -43 -26 -3 0 -11 -6 -18 -12 -8 -7 -37
-33 -66 -58 -44 -37 -88 -81 -145 -144 -50 -56 -133 -191 -173 -282 -31 -70
-73 -205 -88 -279 -4 -22 -9 -546 -11 -1164 l-4 -1124 63 7 c301 30 540 261
574 554 3 32 7 414 8 848 3 869 -1 814 67 942 70 132 207 237 355 273 36 9
319 12 1034 14 542 1 1001 5 1020 9 188 38 359 162 448 326 20 37 53 121 59
150 10 52 19 116 18 135 0 20 -7 20 -1260 20 -693 1 -1291 -2 -1330 -6z"/>
<path d="M1094 4350 c19 -217 169 -424 375 -517 118 -53 146 -55 681 -55 272
0 506 1 518 1 l24 1 -5 163 c-4 179 -7 192 -39 256 -51 100 -159 184 -268 209
-28 6 -275 10 -669 10 l-623 0 6 -68z"/>
<path d="M1906 3492 c-16 -4 -18 -12 -12 -74 3 -38 8 -74 12 -79 3 -5 7 -19 9
-31 3 -13 23 -61 46 -107 71 -144 212 -266 365 -315 79 -26 90 -27 232 -32
l132 -4 0 320 0 320 -22 0 c-144 3 -749 4 -762 2z"/>
</g>
</svg>
