<svg width="37" height="42" fill="none" xmlns="http://www.w3.org/2000/svg"><path d="M36.22 32.255c0-1.843-3.26-24.583-3.626-27.146a.357.357 0 00-.28-.291L10.45.01c-.24-.056-.464.138-.436.374l1.911 25.303a.35.35 0 01-.38.373c-1.446-.069-6.52.305-8.29 1.456-6.252 4.06-1.981 9.256.31 10.157 2.29.9 4.959 1.123 8.163.153 2.107-.637 3.358-2.564 4.118-4.67.702-1.911-.675-19.08-.941-22.24-.028-.236.196-.415.435-.36l14.235 3.436a.34.34 0 01.266.29l2.193 14.205a.35.35 0 01-.393.402c-1.222-.11-4.652-.333-7.013.665-9.695 4.06-3.358 11.28-.154 12.027 3.204.763 7.925.305 9.92-2.55 1.98-2.868 1.825-4.822 1.825-6.776zM14.775 7.797l-.226-3.755 14.726 3.311.534 4.06-15.034-3.616z" fill="#F95C56"/></svg>