<svg width="72" height="71" fill="none" xmlns="http://www.w3.org/2000/svg"><path d="M71.136 69.047s-4.108.557-50.569.73c-5.101.018-20.536.902-20.536.902V1.416l23.104.168L47.007.334l24.129.703v18.946l-.258 23.805.258 25.26z" fill="#fff"/><path d="M46.874 14.076l-5.857-.009c-6.58 0-10.833 4.142-10.833 10.551v4.866h-5.889c-.51 0-.922.39-.922.875v7.05c0 .484.412.875.922.875h5.89v17.787c0 .484.411.875.921.875h7.684c.51 0 .923-.391.923-.875V38.284h6.886c.51 0 .923-.391.923-.875l.002-7.05a.86.86 0 00-.27-.62.94.94 0 00-.652-.255h-6.89v-4.126c0-1.98.498-2.989 3.218-2.989l3.947-.002c.507 0 .92-.391.92-.876v-6.546c-.003-.477-.415-.869-.923-.869z" fill="#3B559E"/></svg>