<svg width="44" height="46" fill="none" xmlns="http://www.w3.org/2000/svg"><path d="M43.929 44.602s-2.505.358-30.826.468c-3.11.012-12.519.581-12.519.581V1.125l14.084.107L29.22.43 43.929.88v12.18l-.157 15.302.157 16.239z" fill="#fff"/><path d="M35.997 17.362c-.064-1.465-.3-2.471-.64-3.344a6.726 6.726 0 00-1.592-2.444 6.767 6.767 0 00-2.437-1.588c-.876-.34-1.878-.576-3.34-.64-1.474-.07-1.942-.087-5.68-.087-3.738 0-4.205.016-5.675.08-1.464.065-2.468.303-3.34.641a6.717 6.717 0 00-2.442 1.594 6.775 6.775 0 00-1.586 2.44c-.34.877-.576 1.88-.64 3.343-.07 1.476-.087 1.944-.087 5.686s.017 4.21.081 5.681c.064 1.465.302 2.471.64 3.344.35.926.893 1.755 1.592 2.444.69.7 1.522 1.243 2.437 1.587.877.34 1.878.577 3.34.641 1.469.064 1.937.08 5.676.08 3.738 0 4.206-.016 5.675-.08 1.464-.064 2.469-.3 3.34-.64a7.05 7.05 0 004.03-4.034c.339-.877.575-1.88.64-3.343.064-1.47.08-1.938.08-5.682-.001-3.741-.007-4.21-.072-5.68zM33.52 28.615c-.06 1.345-.286 2.073-.474 2.558a4.57 4.57 0 01-2.615 2.617c-.485.189-1.216.415-2.555.473-1.452.065-1.889.081-5.562.081-3.674 0-4.115-.017-5.562-.08-1.344-.06-2.07-.287-2.555-.474a4.245 4.245 0 01-1.582-1.028 4.267 4.267 0 01-1.027-1.583c-.188-.485-.414-1.217-.474-2.558-.064-1.453-.08-1.89-.08-5.568 0-3.677.016-4.118.08-5.567.06-1.346.286-2.073.474-2.558a4.191 4.191 0 011.033-1.583 4.25 4.25 0 011.582-1.029c.484-.188 1.215-.414 2.555-.474 1.452-.064 1.888-.08 5.562-.08 3.68 0 4.114.016 5.562.08 1.344.06 2.07.286 2.555.474.596.22 1.14.57 1.581 1.029.458.447.808.984 1.028 1.583.188.485.414 1.217.474 2.558.064 1.453.08 1.89.08 5.567-.001 3.678-.016 4.109-.08 5.562z" fill="#3B559E"/><path d="M22.308 15.96c-3.905 0-7.073 3.172-7.073 7.081 0 3.91 3.168 7.081 7.073 7.081 3.905 0 7.074-3.171 7.074-7.08 0-3.91-3.169-7.081-7.074-7.081zm0 11.675a4.592 4.592 0 01-4.588-4.594 4.59 4.59 0 014.588-4.593 4.59 4.59 0 014.589 4.593 4.592 4.592 0 01-4.589 4.594zM31.312 15.681c0 .913-.74 1.654-1.652 1.654a1.653 1.653 0 010-3.306c.913 0 1.652.739 1.652 1.652z" fill="#3B559E"/></svg>