<svg width="282" height="444" fill="none" xmlns="http://www.w3.org/2000/svg"><path d="M217.106 27.117L203.418.483c-.451-.875-.908-.364-1.081 0l-13.688 26.634c-9.486 1.703-29 4.396-30.258 5.108-.435.246-.601 1.216 0 1.824l21.252 20.796c-1.681 9.243-4.682 28.065-4.682 29.553 0 1.095 1.08 1.338 1.44 1.095l27.017-13.5c7.564 4.5 23.413 13.791 26.295 14.959.608.246 1.726-.484 1.441-1.46l-5.043-30.647c6.604-6.445 20.1-19.628 21.253-20.796 1.152-1.167.48-1.702 0-1.824l-30.258-5.108z" fill="#fff"/><path d="M44 266.948l-10.19-19.592c-.334-.644-.675-.269-.804 0l-10.19 19.592c-7.061 1.253-21.589 3.234-22.525 3.758-.324.181-.447.894 0 1.342l15.821 15.298c-1.251 6.799-3.486 20.645-3.486 21.74 0 .805.805.984 1.073.805l20.112-9.931c5.631 3.311 17.43 10.146 19.575 11.005.453.181 1.285-.356 1.073-1.074l-3.754-22.545c4.916-4.742 14.963-14.439 15.821-15.298.858-.859.358-1.253 0-1.342l-22.525-3.758z" fill="#FF5C56"/><path d="M96.717 93.39l-9.43-18.062c-.31-.594-.625-.248-.744 0l-9.43 18.062c-6.534 1.154-19.977 2.981-20.844 3.464-.3.167-.413.825 0 1.237l14.64 14.103c-1.157 6.268-3.225 19.032-3.225 20.041 0 .743.744.908.993.743l18.61-9.155c5.212 3.052 16.13 9.353 18.115 10.144.419.167 1.189-.328.993-.989l-3.474-20.784c4.549-4.371 13.846-13.311 14.641-14.103.794-.792.33-1.155 0-1.237L96.717 93.39z" fill="#fff"/><path d="M143.808 215.714l-21.021-29.906c-.691-.983.121-1.214.613-1.206l36.549-.648c7.221-9.652 21.201-29.952 22.684-30.965.513-.351 1.655-.002 1.971 1.002l10.421 35.142c10.943 3.201 32.987 10.189 34.595 11.006 1.183.601.833 1.941.366 2.209l-29.914 22.738c.573 10.914 1.624 33.707 1.252 37.564-.079.814-1.502 1.661-2.395.807l-30.262-22.462c-10.712 3.83-32.615 11.652-34.53 12.297-1.916.645-2.113-.399-1.972-1.002l11.643-36.576z" fill="#FF5C56"/><path d="M207.306 228.528l9.436-6.208c2.548 3.2 8.786 10.834 13.349 15.776 5.704 6.177 22.773 30.234 31.367 44.307 8.594 14.073 19.604 47.922 19.442 49.359-.131 1.15-.865.776-1.215.445-35.668-61.328-62.906-82.811-72.066-85.887l-.313-17.792z" fill="#FF5C56"/><path d="M129.005 397.346l-27.909.591c-.917.02-.718-.593-.503-.902l15.152-23.445c-3.044-8.687-9.96-26.193-9.971-27.564-.004-.474.703-1.05 1.475-.823l26.714 8.358c6.689-5.574 20.505-16.573 21.708-17.244.885-.494 1.585.298 1.556.709l1.676 28.644c7.163 4.284 22.059 13.323 24.346 15.202.482.396.413 1.659-.508 1.861l-27.125 9.619c-2.133 8.422-6.501 25.637-6.908 27.126-.406 1.489-1.152 1.169-1.474.823l-18.229-22.955z" fill="#fff"/><path d="M164.166 362.55l.082-8.625c3.113-.253 10.609-.956 15.685-1.745 6.345-.985 28.862-1.562 41.443-1.018 12.58.545 38.726 7.979 39.568 8.694.673.572.124.878-.235.959-54.065-3.503-79.281 4.616-85.131 9.113l-11.412-7.378z" fill="#fff"/></svg>