<svg width="300" height="379" viewBox="0 0 300 379" fill="none" xmlns="http://www.w3.org/2000/svg">
<path d="M8 5.5V379C74 373 108.5 373.167 117.5 374C226.7 374 280 370.667 293 369V3.5L196.5 0L94.5 7L8 5.5Z" fill="white"/>
<path d="M60.186 44.8497L50.9376 57.5332H50.0127V45.6425H42.614V78.144L50.9376 77.3512V65.4604L62.0356 77.3512L70.3592 76.5585L56.4866 60.7041L67.5847 44.8497H60.186Z" fill="black"/>
<path d="M220.523 44.8497L211.582 57.1809H210.688V45.6204H203.536V77.2191L211.582 76.4484V64.8879L222.311 76.4484L230.357 75.6777L216.947 60.2637L227.675 44.8497H220.523Z" fill="black"/>
<path d="M104.578 44.9821L105.4 77.3149V78.144H111.977V77.3149V67.3664L119.376 78.144L126.775 77.3149L117.732 64.8792C118.28 64.8792 120.033 64.5476 122.664 63.2211C125.295 61.8947 126.5 58.7995 126.775 57.4178V53.2726C126.775 49.9564 123.486 44.9821 116.91 44.153C111.648 43.4898 106.497 44.4294 104.578 44.9821Z" fill="black"/>
<path d="M111.052 59.6202V49.5893C114.135 49.1959 120.301 49.5893 120.301 54.3097C120.301 59.0301 114.135 59.8169 111.052 59.6202Z" fill="white" stroke="black"/>
<path d="M84.0472 43.9249L70.3596 78.144H77.2034L80.6253 68.7337H92.602L96.0239 78.144H102.012L102.868 76.433L89.1801 43.9249H84.0472Z" fill="black"/>
<path d="M85.7588 53.3351L83.1924 61.4621L89.1807 60.6066L85.7588 53.3351Z" fill="white"/>
<path d="M144.492 43.0974L130.474 78.144H137.483L140.988 68.5062H153.254L156.759 78.144H162.892L163.768 76.3916L149.749 43.0974H144.492Z" fill="black"/>
<path d="M146.244 52.7352L143.616 61.0588L149.749 60.1826L146.244 52.7352Z" fill="white"/>
<path fill-rule="evenodd" clip-rule="evenodd" d="M181.869 77.3519C191.355 77.3519 199.045 69.662 199.045 60.1759C199.045 50.6899 191.355 43 181.869 43C172.383 43 164.693 50.6899 164.693 60.1759C164.693 69.662 172.383 77.3519 181.869 77.3519ZM181.869 72.1991C188.509 72.1991 193.892 66.8162 193.892 60.1759C193.892 53.5357 188.509 48.1528 181.869 48.1528C175.229 48.1528 169.846 53.5357 169.846 60.1759C169.846 66.8162 175.229 72.1991 181.869 72.1991Z" fill="black"/>
<path d="M181.726 73.4919C189.202 73.4919 195.262 67.4319 195.262 59.9564C195.262 52.481 189.202 46.421 181.726 46.421C174.251 46.421 168.191 52.481 168.191 59.9564C168.191 67.4319 174.251 73.4919 181.726 73.4919Z" fill="white" stroke="black" stroke-width="7"/>
<path d="M251.042 50.1465V44.8497L234.055 45.4383L235.227 77.2191C239.444 77.2191 247.918 76.4344 251.627 76.0421V70.1567L241.084 70.7452V64.2714L251.627 63.6828V57.7975L244.599 57.209L240.498 57.7975V51.3236L251.042 50.1465Z" fill="black"/>
<path d="M129.626 90.2266L131.05 138.853V140.099H142.444V138.853V123.891L155.262 140.099L168.079 138.853L152.413 120.15C153.363 120.15 156.401 119.652 160.958 117.657C165.516 115.662 167.604 111.007 168.079 108.929V102.695C168.079 97.7075 162.382 90.2266 150.989 88.9798C141.874 87.9823 132.949 89.3954 129.626 90.2266Z" fill="black"/>
<path d="M140.842 112.241V97.1555C146.182 96.5639 156.864 97.1555 156.864 104.255C156.864 111.354 146.182 112.537 140.842 112.241Z" fill="white" stroke="black"/>
<path d="M95.6109 88.7434L71.9475 140.099H83.7792L89.695 125.976H110.401L116.316 140.099H126.669L128.148 137.531L104.485 88.7434H95.6109Z" fill="black"/>
<path d="M98.5685 102.866L94.1316 115.063L104.484 113.779L98.5685 102.866Z" fill="white"/>
<path d="M47.2207 138.37C48.5097 128.07 43.8063 102.788 42.3681 91.3114C48.3719 89.1019 60.0209 89.2778 64.0201 89.7651C68.6347 90.3274 77.846 94.4726 77.7746 106.555C77.7032 118.638 64.241 121.382 57.5188 121.243L58.4253 138.919L47.2207 138.37Z" fill="black"/>
<path d="M55.9161 112.397L54.2192 99.0923C58.3444 98.1676 66.7943 97.8836 67.5929 104.145C68.3914 110.406 60.1411 112.255 55.9161 112.397Z" fill="white"/>
<path d="M208.012 99.395H198.001V140.099H185.069L186.321 99.395H175.475V88.7434H208.012V99.395Z" fill="black"/>
<path d="M232.414 110.189L221.322 89.7182H208.011L225.759 119.937L226.868 141.383H239.07L240.179 118.962C248.165 106.485 254.599 93.6175 256.817 88.7434H244.616L232.414 110.189Z" fill="black"/>
<path d="M239.96 154.127L224.634 175.358H223.102V155.454H210.841V209.857L224.634 208.53V188.627L243.025 208.53L256.818 207.203L233.83 180.665L252.22 154.127H239.96Z" fill="#0741FF"/>
<path d="M119.698 182.664L119.401 156.874L107.754 156.618L108.292 180.208C108.437 183.273 108.292 189.914 108.292 192.839C108.292 195.608 110.306 201.693 111.732 204.237C113.322 206.197 117.752 210.242 122.753 210.743C129.003 211.369 131.948 210.309 134.345 209.85C136.743 209.391 141.429 206.174 144.014 202.366C146.082 199.319 146.98 193.624 147.171 191.158L146.519 177.365C146.542 174.599 146.667 168.787 146.982 167.666C147.298 166.546 146.788 160.303 146.493 157.322L135.897 157.362C136.059 164.842 136.477 181.341 136.86 187.498C137.243 193.654 133.149 197.542 131.055 198.716C130.39 199.285 128.182 200.326 124.661 199.94C121.141 199.553 120.094 192.72 119.698 189.206L119.698 182.664Z" fill="#0741FF"/>
<path d="M201.669 172.775L202.482 156.914H192.729V176.741V197.559L193.542 208.464H201.669V196.568V189.628V172.775Z" fill="#0741FF"/>
<path d="M179.709 162.91C181.573 167.782 181.159 168.395 181.573 170.704L172.253 171.679L171.321 167.782C171.011 167.132 169.83 165.833 167.593 165.833C164.797 165.833 161.069 169.73 162.933 172.653C164.797 175.576 165.729 175.576 166.661 176.55C166.661 177.329 170.389 178.174 172.253 178.498C174.117 178.823 178.218 179.862 179.709 181.421C183.438 185.318 182.506 185.318 183.438 186.293C184.37 187.267 184.37 192.138 184.37 193.112C184.37 194.087 183.438 197.984 182.506 198.958C181.573 201.881 178.777 205.128 176.913 206.752C175.981 207.726 168.525 212.598 160.137 207.726C153.426 203.829 152.37 197.01 152.681 194.087H162.933C162.622 195.386 163.171 197.175 165.729 198.958C168.525 200.907 170.613 199.328 171.321 198.958C172.499 198.343 174.863 196.815 174.117 192.138C173.372 187.462 160.713 185.756 160.137 185.318C156.719 182.72 150.817 179.473 152.681 168.756C153.697 162.91 157.943 159.567 160.137 158.039C162.933 156.09 172.253 157.064 174.117 158.039C176.522 159.296 177.845 159.987 179.709 162.91Z" fill="#0741FF"/>
<path d="M45.0593 209.857H56.3212L54.9134 176.419L67.583 209.857L76.0293 208.464L87.2912 175.026L88.6703 209.151H99.3814L98.553 183.385L97.1453 156.914L83.068 156.914L70.3984 193.138L57.7289 156.914H43.6516L45.0593 209.857Z" fill="#0741FF"/>
<path d="M69.9105 290.773C82.7501 294.38 94.3401 289.662 98.5301 286.852C102.153 284.404 109.962 276.515 112.21 264.544C115.019 249.581 110.729 244.741 107.675 238.711C104.621 232.682 93.7741 224.449 84.7458 223.434C75.7176 222.419 66.0754 224.19 57.5747 229.622C49.0739 235.053 44.501 244.758 43.4859 253.787C42.6738 261.009 45.9238 270.717 47.6503 274.669C49.7206 278.533 57.0709 287.165 69.9105 290.773Z" fill="#0741FF"/>
<path d="M98.9625 250.806C97.1739 243.011 88.7768 237.362 84.8018 235.513C79.2289 234.285 70.6888 236.948 67.1153 238.433C64.3683 240.588 58.5768 245.804 57.3868 249.438C56.1968 253.071 56.3927 260.581 56.6394 263.881C60.4493 271.343 69.42 276.598 73.4291 278.293C77.7111 278.749 87.1093 278.97 90.4466 276.199C93.7839 273.428 96.8798 268.364 98.0105 266.179C99.0731 264.303 100.751 258.602 98.9625 250.806Z" fill="white"/>
<path d="M122.396 288.107C123.424 286.386 97.2205 266.816 85.1013 258.465L75.8372 269.572L114.005 297.458C117.114 295.871 120.853 290.689 122.396 288.107Z" fill="#0741FF"/>
<path d="M138.13 258.706L137.773 227.701L123.771 227.394L124.418 255.753C124.593 259.438 124.788 267.673 124.176 271.137C123.564 274.6 126.839 281.582 128.553 284.64C130.465 286.997 135.791 291.86 141.802 292.462C149.316 293.215 152.857 291.94 155.739 291.388C158.621 290.836 164.255 286.97 167.362 282.391C169.848 278.728 170.928 271.882 171.157 268.917L170.374 252.335C170.401 249.01 170.551 242.023 170.931 240.676C171.31 239.328 170.697 231.824 170.343 228.24L157.604 228.288C157.798 237.28 158.302 257.116 158.762 264.517C159.223 271.918 154.301 276.592 151.783 278.003C150.984 278.687 148.329 279.939 144.097 279.474C139.865 279.009 137.854 270.444 137.377 266.22L138.13 258.706Z" fill="#0741FF"/>
<path d="M195.323 247.63L196.512 227.438H182.245V252.678V279.18L183.434 293.062H195.323V277.918V269.084V247.63Z" fill="#0741FF"/>
<path d="M207.936 232.422L209.025 228.053L247.574 227.915L248.236 238.289L246.928 241.675C239.839 253.365 225.507 276.986 224.896 277.947C224.285 278.909 224.061 280.678 224.025 281.442C226.682 281.331 232.433 281.218 234.181 281.653C235.928 282.089 243.864 281.901 247.613 281.753L248.277 293.983C234.809 294.029 207.741 293.903 207.216 293.03C206.691 292.157 207.064 284.949 207.317 281.455L230.765 239.503L209.252 240.174L207.936 232.422Z" fill="#0741FF"/>
<path d="M74.841 311.891V307.57L60.9001 308.05L61.8616 333.974C65.3228 333.974 72.2772 333.334 75.3217 333.014V328.213L66.6688 328.694V323.413L75.3217 322.933V318.132L69.5531 317.652L66.1881 318.132V312.851L74.841 311.891Z" fill="black"/>
<path d="M131.92 315.694L132.321 307.57H127.513V317.726V328.389L127.914 333.974H131.92V327.881V324.327V315.694Z" fill="black"/>
<path d="M43.8129 318.261L43.7781 308.778L38.5332 309.065C39.6207 309.224 39.1238 326.001 38.7394 334.369C40.2611 334.241 43.4406 334.003 43.9843 334.082C44.5281 334.162 44.2858 327.106 44.0966 323.568L51.7205 323.628L52.2878 334.242L55.0066 334.639L57.1929 333.905L56.5978 308.896C55.5887 308.187 52.7134 308.562 51.4019 308.839L51.7766 318.371L43.8129 318.261Z" fill="black"/>
<path d="M80.1358 333.974H85.6868L84.9929 317.298L91.2379 333.974L95.4012 333.28L100.952 316.603L101.632 333.622H106.912L106.503 320.772L105.809 307.57L98.8706 307.57L92.6256 325.636L86.3807 307.57H79.4419L80.1358 333.974Z" fill="black"/>
<path d="M116.649 328.555L115.613 307.311L110.602 306.875L110.164 334.338L125.349 333.845L125.731 329.345L116.649 328.555Z" fill="black"/>
<path d="M159.714 313.953L159.732 313.994L158.745 314.507H153.805L153.311 313.994C152.817 313.482 151.335 312.457 150.348 311.945C149.36 311.433 147.384 310.92 145.902 311.433C144.717 311.843 143.103 312.628 142.445 312.97C141.951 313.482 140.864 314.712 140.469 315.531C139.975 316.556 139.481 318.605 139.481 319.117C139.481 319.63 139.481 320.654 139.975 322.191C140.469 323.728 141.951 325.777 142.445 326.29C142.938 326.802 145.902 328.339 147.878 328.339C149.854 328.339 149.854 327.827 151.335 327.314C152.521 326.904 154.134 324.753 154.793 323.728C154.134 323.728 152.99 323.981 151.669 324.111C150.927 324.184 149.36 324.24 147.878 324.24C146.692 324.24 145.408 324.411 144.914 324.24L144.42 319.63C147.384 319.63 157.263 318.605 160.72 318.605C161.718 318.605 160.72 322.704 160.72 323.216C160.72 323.728 157.757 330.9 153.805 332.437C149.854 333.974 149.36 333.974 146.89 333.974C144.42 333.974 143.926 333.462 141.457 332.437C139.481 331.618 137.67 329.363 137.011 328.339L135.035 323.728C134.541 322.02 133.85 317.888 135.035 315.019C136.517 311.433 136.517 311.945 138.493 309.896C140.469 307.847 141.457 307.847 143.926 306.822C145.902 306.002 149.03 306.139 150.348 306.31C157.22 308.346 158.726 311.732 159.714 313.953Z" fill="black"/>
<path d="M256.818 310.093H251.747V333.224H245.196L245.83 310.093H240.336V304.04H256.818V310.093Z" fill="black"/>
<path d="M194.898 313.397L194.917 313.439L193.904 313.965H188.838L188.331 313.439C187.825 312.914 186.305 311.864 185.292 311.339C184.278 310.814 182.252 310.289 180.732 310.814C179.516 311.234 177.861 312.039 177.186 312.389C176.679 312.914 175.565 314.175 175.16 315.015C174.653 316.065 174.146 318.165 174.146 318.691C174.146 319.216 174.146 320.266 174.653 321.841C175.16 323.417 176.679 325.517 177.186 326.042C177.693 326.567 180.732 328.143 182.759 328.143C184.785 328.143 184.785 327.617 186.305 327.092C187.521 326.672 189.176 324.467 189.851 323.417C189.176 323.417 188.002 323.676 186.647 323.809C185.886 323.883 184.278 323.942 182.759 323.942C181.543 323.942 180.226 324.117 179.719 323.942L179.212 319.216C182.252 319.216 192.384 318.165 195.93 318.165C196.954 318.165 195.93 322.366 195.93 322.891C195.93 323.417 192.891 330.768 188.838 332.344C184.785 333.919 184.278 333.919 181.745 333.919C179.212 333.919 178.706 333.394 176.173 332.344C174.146 331.503 172.289 329.193 171.613 328.143L169.587 323.417C169.08 321.666 168.371 317.43 169.587 314.49C171.107 310.814 171.107 311.339 173.133 309.239C175.16 307.138 176.173 307.138 178.706 306.088C180.732 305.248 183.941 305.388 185.292 305.563C192.34 307.65 193.885 311.12 194.898 313.397Z" fill="black"/>
<path d="M210.669 306.596L211.204 307.678C211.214 307.521 211.233 307.358 211.264 307.19C211.859 303.921 214.537 303.921 215.43 303.921C216.323 303.921 219.001 305.11 219.001 307.785C219.001 309.924 216.819 311.054 215.728 311.351C214.961 311.504 213.641 311.263 212.623 310.545L223.167 331.857H217.216L213.645 326.211H204.717L202.039 333.343H196.385L202.039 316.7L203.921 311.784C203.781 311.94 203.359 312.199 202.336 312.54C200.908 313.015 199.757 312.143 199.36 311.648C198.666 310.856 197.515 308.855 198.468 307.19C199.658 305.11 200.551 305.11 202.336 305.11C203.765 305.11 204.717 306.695 205.015 307.487L204.94 309.122L205.907 306.596H210.669Z" fill="black"/>
<path d="M208.629 313.212L206.333 320.568L211.69 319.793L208.629 313.212Z" fill="white"/>
<ellipse cx="201.741" cy="308.567" rx="1.53045" ry="1.54853" fill="white"/>
<ellipse cx="215.133" cy="307.405" rx="1.91307" ry="1.93566" fill="white"/>
<path d="M237.84 307.962C238.839 310.583 238.617 310.913 238.839 312.156L233.845 312.68L233.346 310.583C233.18 310.234 232.547 309.535 231.349 309.535C229.851 309.535 227.853 311.632 228.852 313.204C229.851 314.777 230.35 314.777 230.849 315.301C230.849 315.721 232.847 316.175 233.845 316.35C234.844 316.525 237.041 317.084 237.84 317.923C239.838 320.02 239.338 320.02 239.838 320.544C240.337 321.068 240.337 323.689 240.337 324.214C240.337 324.738 239.838 326.835 239.338 327.359C238.839 328.932 237.341 330.68 236.342 331.553C235.843 332.078 231.848 334.699 227.354 332.078C223.759 329.981 223.193 326.311 223.359 324.738H228.852C228.685 325.437 228.98 326.4 230.35 327.359C231.848 328.408 232.967 327.558 233.346 327.359C233.977 327.028 235.244 326.206 234.844 323.689C234.445 321.173 227.663 320.255 227.354 320.02C225.523 318.622 222.36 316.874 223.359 311.107C223.904 307.962 226.179 306.163 227.354 305.34C228.852 304.292 233.845 304.816 234.844 305.34C236.132 306.017 236.842 306.389 237.84 307.962Z" fill="black"/>
<path d="M299.095 162.227V207.727H286.095C285.095 207.727 282.895 206.927 282.095 203.727C281.295 200.527 285.095 197.727 287.095 196.727L284.095 195.227C283.095 194.56 280.895 192.727 280.095 190.727C279.295 188.727 281.761 186.227 283.095 185.227C281.761 185.06 278.895 183.727 278.095 179.727C277.295 175.727 281.761 172.727 284.095 171.727C282.761 171.394 280.295 169.727 281.095 165.727C281.895 161.727 293.428 161.727 299.095 162.227Z" fill="#F8D1D1"/>
<path d="M8.2016e-05 154.227V199.727H13C14 199.727 16.2 198.927 17 195.727C17.8 192.527 14 189.727 12 188.727L15.0001 187.227C16.0001 186.56 18.2001 184.727 19 182.727C19.7999 180.727 17.3333 178.227 16 177.227C17.3334 177.06 20.2001 175.727 21.0001 171.727C21.8001 167.727 17.3334 164.727 15.0001 163.727C16.3334 163.394 18.8001 161.727 18.0001 157.727C17.2001 153.727 5.66675 153.727 8.2016e-05 154.227Z" fill="#F8D1D1"/>
</svg>
