<svg width="575" height="628" viewBox="0 0 575 628" fill="none" xmlns="http://www.w3.org/2000/svg">
<path d="M11.2983 10.3568V628C158.93 621.974 216.552 620.468 226.909 620.468C442.33 618.961 540.124 615.446 562.093 613.877V6.5907L384.144 0L193.013 10.3568H11.2983Z" fill="white"/>
<path d="M127.754 56.0231L111.267 78.6343H109.618V57.4363H96.4282V115.378L111.267 113.964V92.7664L131.052 113.964L145.89 112.551L121.159 84.2872L140.944 56.0231H127.754Z" fill="black"/>
<path d="M413.591 56.0231L397.653 78.0062H396.059V57.397H383.309V113.729L397.653 112.355V91.7457L416.778 112.355L431.122 110.981L407.216 83.502L426.341 56.0231H413.591Z" fill="black"/>
<path d="M206.894 56.2591L208.359 113.9V115.378H220.084V113.9V96.1642L233.274 115.378L246.464 113.9L230.343 91.7303C231.32 91.7303 234.446 91.1391 239.136 88.7744C243.826 86.4097 245.975 80.8919 246.464 78.4286V71.0388C246.464 65.1269 240.601 56.2591 228.877 54.7812C219.497 53.5988 210.313 55.2738 206.894 56.2591Z" fill="black"/>
<path d="M218.435 82.3548V64.4725C223.931 63.7713 234.922 64.4725 234.922 72.8877C234.922 81.3029 223.931 82.7055 218.435 82.3548Z" fill="white" stroke="black"/>
<path d="M170.292 54.3745L145.891 115.378H158.092L164.192 98.6019H185.543L191.644 115.378H202.319L203.844 112.328L179.443 54.3745H170.292Z" fill="black"/>
<path d="M173.344 71.1503L168.768 85.6386L179.444 84.1135L173.344 71.1503Z" fill="white"/>
<path d="M278.05 52.8992L253.058 115.378H265.554L271.802 98.1961H293.669L299.917 115.378H310.851L312.413 112.254L287.421 52.8992H278.05Z" fill="black"/>
<path d="M281.173 70.0809L276.487 84.9196L287.421 83.3576L281.173 70.0809Z" fill="white"/>
<path fill-rule="evenodd" clip-rule="evenodd" d="M344.682 113.966C361.593 113.966 375.302 100.257 375.302 83.3456C375.302 66.4347 361.593 52.7256 344.682 52.7256C327.771 52.7256 314.062 66.4347 314.062 83.3456C314.062 100.257 327.771 113.966 344.682 113.966ZM344.682 104.78C356.519 104.78 366.116 95.1833 366.116 83.3456C366.116 71.5079 356.519 61.9116 344.682 61.9116C332.844 61.9116 323.248 71.5079 323.248 83.3456C323.248 95.1833 332.844 104.78 344.682 104.78Z" fill="black"/>
<path d="M344.428 104.345C356.241 104.345 365.818 94.7679 365.818 82.9543C365.818 71.1407 356.241 61.5638 344.428 61.5638C332.614 61.5638 323.037 71.1407 323.037 82.9543C323.037 94.7679 332.614 104.345 344.428 104.345Z" fill="white" stroke="black" stroke-width="7"/>
<path d="M467.998 65.4658V56.0231L437.716 57.0723L439.805 113.729C447.323 113.729 462.429 112.33 469.042 111.631V101.139L450.247 102.188V90.6466L469.042 89.5974V79.1054L456.512 78.0562L449.203 79.1054V67.5642L467.998 65.4658Z" fill="black"/>
<path d="M251.547 136.918L254.086 223.605V225.827H274.398V223.605V196.932L297.248 225.827L320.099 223.605L292.17 190.264C293.863 190.264 299.279 189.374 307.404 185.818C315.529 182.262 319.252 173.963 320.099 170.259V159.145C320.099 150.254 309.943 136.918 289.631 134.695C273.382 132.917 257.472 135.436 251.547 136.918Z" fill="black"/>
<path d="M271.542 176.164V149.27C281.063 148.215 300.105 149.27 300.105 161.926C300.105 174.582 281.063 176.691 271.542 176.164Z" fill="white" stroke="black"/>
<path d="M190.907 134.274L148.722 225.827H169.814L180.361 200.65H217.273L227.819 225.827H246.275L248.912 221.249L206.727 134.274H190.907Z" fill="black"/>
<path d="M196.18 159.451L188.27 181.194L206.726 178.906L196.18 159.451Z" fill="white"/>
<path d="M104.641 222.745C106.939 204.382 98.5536 159.311 95.9897 138.852C106.693 134.913 127.46 135.226 134.589 136.095C142.816 137.097 159.237 144.487 159.11 166.027C158.983 187.567 134.983 192.459 122.999 192.212L124.615 223.722L104.641 222.745Z" fill="black"/>
<path d="M120.142 176.442L117.117 152.723C124.471 151.075 139.535 150.568 140.959 161.73C142.383 172.892 127.674 176.189 120.142 176.442Z" fill="white"/>
<path d="M391.288 153.263H373.44V225.827H350.387L352.618 153.263H333.283V134.274H391.288V153.263Z" fill="black"/>
<path d="M434.79 172.506L415.016 136.012H391.287L422.926 189.884L424.903 228.116H446.655L448.632 188.146C462.87 165.902 474.339 142.963 478.294 134.274H456.542L434.79 172.506Z" fill="black"/>
<path d="M448.242 250.835L420.921 288.683H418.189V253.2H396.332V350.186L420.921 347.82V312.338L453.707 347.82L478.296 345.455L437.314 298.145L470.1 250.835H448.242Z" fill="#0741FF"/>
<path d="M233.848 301.709L233.318 255.732L212.555 255.275L213.515 297.33C213.773 302.794 213.515 314.633 213.515 319.848C213.515 324.784 217.105 335.632 219.646 340.167C222.481 343.661 230.38 350.873 239.294 351.766C250.436 352.882 255.686 350.991 259.96 350.173C264.234 349.355 272.589 343.621 277.197 336.832C280.883 331.4 282.484 321.248 282.824 316.85L281.662 292.261C281.703 287.331 281.926 276.97 282.488 274.972C283.051 272.974 282.142 261.845 281.617 256.53L262.727 256.601C263.015 269.936 263.761 299.35 264.444 310.326C265.127 321.301 257.828 328.231 254.094 330.325C252.909 331.339 248.972 333.195 242.696 332.506C236.42 331.817 234.555 319.635 233.848 313.371L233.848 301.709Z" fill="#0741FF"/>
<path d="M379.98 284.079L381.429 255.803H364.042V291.149V328.262L365.491 347.702H379.98V326.495V314.124V284.079Z" fill="#0741FF"/>
<path d="M340.832 266.492C344.155 275.177 343.417 276.27 344.155 280.387L327.54 282.124L325.878 275.177C325.324 274.019 323.22 271.703 319.232 271.703C314.247 271.703 307.601 278.65 310.924 283.861C314.247 289.072 315.909 289.072 317.57 290.808C317.57 292.198 324.217 293.703 327.54 294.282C330.863 294.861 338.174 296.714 340.832 299.493C347.478 306.44 345.817 306.44 347.478 308.177C349.14 309.914 349.14 318.598 349.14 320.335C349.14 322.072 347.478 329.019 345.817 330.756C344.155 335.967 339.171 341.756 335.847 344.651C334.186 346.388 320.893 355.072 305.94 346.388C293.976 339.44 292.093 327.282 292.647 322.072H310.924C310.37 324.388 311.349 327.578 315.909 330.756C320.893 334.23 324.616 331.416 325.878 330.756C327.977 329.659 332.192 326.935 330.863 318.598C329.533 310.261 306.967 307.221 305.94 306.44C299.847 301.808 289.324 296.019 292.647 276.913C294.46 266.492 302.029 260.533 305.94 257.808C310.924 254.335 327.54 256.071 330.863 257.808C335.149 260.049 337.509 261.282 340.832 266.492Z" fill="#0741FF"/>
<path d="M100.788 350.186H120.864L118.355 290.575L140.941 350.186L155.999 347.702L176.076 288.092L178.534 348.927H197.629L196.152 302.994L193.643 255.803L168.547 255.803L145.96 320.381L123.374 255.803H98.2781L100.788 350.186Z" fill="#0741FF"/>
<path d="M145.09 494.437C167.98 500.869 188.641 492.457 196.111 487.447C202.57 483.083 216.491 469.02 220.498 447.679C225.507 421.004 217.859 412.374 212.414 401.626C206.969 390.877 187.632 376.2 171.537 374.391C155.443 372.581 138.253 375.739 123.099 385.421C107.944 395.104 99.7919 412.406 97.9822 428.501C96.5344 441.377 102.328 458.684 105.406 465.728C109.097 472.618 122.201 488.005 145.09 494.437Z" fill="#0741FF"/>
<path d="M196.882 423.188C193.693 409.29 178.723 399.221 171.637 395.924C161.702 393.735 146.477 398.483 140.107 401.131C135.21 404.971 124.885 414.271 122.764 420.748C120.642 427.225 120.991 440.613 121.431 446.497C128.223 459.8 144.216 469.168 151.363 472.189C158.996 473.003 175.751 473.395 181.7 468.456C187.65 463.516 193.169 454.489 195.185 450.593C197.079 447.248 200.07 437.085 196.882 423.188Z" fill="white"/>
<path d="M238.657 489.685C240.49 486.616 193.776 451.729 172.171 436.841L155.656 456.641L223.699 506.355C229.242 503.525 235.907 494.287 238.657 489.685Z" fill="#0741FF"/>
<path d="M266.707 437.271L266.07 381.998L241.109 381.449L242.263 432.007C242.574 438.576 242.922 453.257 241.831 459.432C240.74 465.606 246.579 478.053 249.634 483.505C253.042 487.705 262.538 496.375 273.254 497.449C286.649 498.791 292.961 496.518 298.099 495.534C303.237 494.551 313.281 487.657 318.82 479.495C323.252 472.965 325.177 460.76 325.586 455.474L324.189 425.914C324.238 419.986 324.505 407.53 325.182 405.128C325.858 402.726 324.765 389.347 324.134 382.958L301.425 383.043C301.771 399.075 302.668 434.436 303.489 447.63C304.31 460.825 295.536 469.156 291.046 471.673C289.622 472.892 284.889 475.124 277.344 474.295C269.8 473.466 266.214 458.197 265.365 450.666L266.707 437.271Z" fill="#0741FF"/>
<path d="M368.666 417.525L370.785 381.528H345.353V426.525V473.771L347.472 498.519H368.666V471.521V455.772V417.525Z" fill="#0741FF"/>
<path d="M391.152 390.413L393.093 382.624L461.815 382.38L462.997 400.873L460.665 406.91C448.026 427.75 422.476 469.859 421.387 471.573C420.298 473.287 419.898 476.441 419.834 477.804C424.571 477.606 434.824 477.403 437.94 478.18C441.055 478.956 455.202 478.621 461.885 478.357L463.069 500.16C439.059 500.243 390.804 500.019 389.868 498.462C388.933 496.905 389.598 484.056 390.048 477.825L431.849 403.038L393.498 404.234L391.152 390.413Z" fill="#0741FF"/>
<path d="M153.88 532.085V524.382L129.027 525.238L130.741 571.454C136.911 571.454 149.309 570.313 154.737 569.742V561.184L139.311 562.039V552.625L154.737 551.769V543.211L144.453 542.355L138.454 543.211V533.796L153.88 532.085Z" fill="black"/>
<path d="M255.636 538.866L256.35 524.382H247.781V542.487V561.496L248.495 571.454H255.636V560.591V554.254V538.866Z" fill="black"/>
<path d="M98.565 543.441L98.5028 526.536L89.1526 527.048C91.0914 527.331 90.2055 557.239 89.5203 572.158C92.2331 571.928 97.9011 571.505 98.8705 571.646C99.8399 571.788 99.4079 559.209 99.0707 552.902L112.662 553.01L113.673 571.931L118.52 572.639L122.418 571.331L121.357 526.745C119.558 525.481 114.432 526.151 112.094 526.644L112.762 543.637L98.565 543.441Z" fill="black"/>
<path d="M163.319 571.454H173.215L171.978 541.724L183.111 571.454L190.533 570.215L200.429 540.485L201.641 570.826H211.053L210.325 547.918L209.088 524.382L196.718 524.382L185.585 556.589L174.452 524.382H162.082L163.319 571.454Z" fill="black"/>
<path d="M228.412 561.793L226.564 523.919L217.631 523.143L216.851 572.103L243.922 571.222L244.603 563.2L228.412 561.793Z" fill="black"/>
<path d="M305.185 535.761L305.218 535.835L303.457 536.748H294.651L293.771 535.835C292.89 534.922 290.249 533.095 288.487 532.182C286.726 531.268 283.204 530.355 280.562 531.268C278.449 531.999 275.573 533.399 274.398 534.008C273.518 534.922 271.581 537.114 270.876 538.575C269.996 540.401 269.115 544.055 269.115 544.968C269.115 545.881 269.115 547.708 269.996 550.448C270.876 553.188 273.518 556.841 274.398 557.754C275.279 558.667 280.562 561.407 284.085 561.407C287.607 561.407 287.607 560.494 290.249 559.581C292.362 558.85 295.238 555.014 296.412 553.188C295.238 553.188 293.198 553.639 290.843 553.87C289.521 554 286.726 554.101 284.085 554.101C281.971 554.101 279.682 554.405 278.801 554.101L277.921 545.881C283.204 545.881 300.815 544.055 306.979 544.055C308.758 544.055 306.979 551.361 306.979 552.274C306.979 553.188 301.696 565.974 294.651 568.714C287.607 571.454 286.726 571.454 282.324 571.454C277.921 571.454 277.04 570.54 272.637 568.714C269.115 567.253 265.886 563.234 264.712 561.407L261.19 553.188C260.31 550.143 259.077 542.776 261.19 537.662C263.832 531.268 263.832 532.182 267.354 528.528C270.876 524.875 272.637 524.875 277.04 523.049C280.562 521.587 286.139 521.831 288.487 522.135C300.739 525.766 303.424 531.801 305.185 535.761Z" fill="black"/>
<path d="M478.295 528.881H469.254V570.117H457.577L458.707 528.881H448.913V518.09H478.295V528.881Z" fill="black"/>
<path d="M367.909 534.77L367.943 534.846L366.136 535.782H357.105L356.202 534.846C355.299 533.91 352.589 532.037 350.783 531.101C348.977 530.165 345.364 529.229 342.655 530.165C340.487 530.914 337.537 532.349 336.333 532.973C335.43 533.91 333.443 536.156 332.72 537.654C331.817 539.526 330.914 543.271 330.914 544.207C330.914 545.143 330.914 547.016 331.817 549.824C332.72 552.632 335.43 556.377 336.333 557.313C337.236 558.249 342.655 561.058 346.267 561.058C349.88 561.058 349.88 560.121 352.589 559.185C354.757 558.436 357.707 554.505 358.911 552.632C357.707 552.632 355.614 553.095 353.199 553.332C351.843 553.465 348.977 553.568 346.267 553.568C344.1 553.568 341.752 553.881 340.848 553.568L339.945 545.143C345.364 545.143 363.427 543.271 369.749 543.271C371.574 543.271 369.749 550.76 369.749 551.696C369.749 552.632 364.33 565.738 357.105 568.547C349.88 571.355 348.977 571.355 344.461 571.355C339.945 571.355 339.042 570.419 334.526 568.547C330.914 567.049 327.602 562.93 326.398 561.058L322.786 552.632C321.883 549.512 320.618 541.96 322.786 536.718C325.495 530.165 325.495 531.101 329.108 527.357C332.72 523.612 334.526 523.612 339.042 521.74C342.655 520.242 348.375 520.492 350.783 520.804C363.348 524.525 366.102 530.712 367.909 534.77Z" fill="black"/>
<path d="M396.024 522.646L396.979 524.575C396.996 524.295 397.03 524.005 397.085 523.705C398.146 517.877 402.921 517.877 404.512 517.877C406.104 517.877 410.879 519.997 410.879 524.765C410.879 528.58 406.988 530.593 405.043 531.123C403.676 531.396 401.322 530.965 399.507 529.686L418.306 567.68H407.695L401.329 557.613H385.414L380.639 570.329H370.559L380.639 540.659L383.995 531.895C383.746 532.173 382.992 532.635 381.169 533.242C378.623 534.09 376.572 532.536 375.864 531.653C374.626 530.24 372.575 526.672 374.273 523.705C376.395 519.997 377.986 519.997 381.169 519.997C383.716 519.997 385.414 522.822 385.944 524.235L385.811 527.149L387.536 522.646H396.024Z" fill="black"/>
<path d="M392.387 534.441L388.294 547.554L397.844 546.174L392.387 534.441Z" fill="white"/>
<ellipse cx="380.108" cy="526.159" rx="2.72838" ry="2.7606" fill="white"/>
<ellipse cx="403.982" cy="524.089" rx="3.41048" ry="3.45075" fill="white"/>
<path d="M444.463 525.081C446.243 529.754 445.848 530.342 446.243 532.557L437.341 533.492L436.451 529.754C436.154 529.131 435.027 527.884 432.89 527.884C430.22 527.884 426.659 531.623 428.439 534.427C430.22 537.231 431.11 537.231 432 538.165C432 538.913 435.561 539.723 437.341 540.034C439.122 540.346 443.039 541.343 444.463 542.838C448.024 546.577 447.134 546.576 448.024 547.511C448.914 548.446 448.914 553.119 448.914 554.053C448.914 554.988 448.024 558.726 447.134 559.661C446.243 562.465 443.573 565.58 441.792 567.138C440.902 568.072 433.78 572.746 425.769 568.072C419.359 564.334 418.35 557.792 418.647 554.988H428.439C428.142 556.234 428.667 557.951 431.11 559.661C433.78 561.53 435.775 560.016 436.451 559.661C437.576 559.071 439.834 557.605 439.122 553.119C438.41 548.633 426.319 546.997 425.769 546.576C422.504 544.084 416.867 540.969 418.647 530.688C419.618 525.081 423.674 521.874 425.769 520.408C428.439 518.538 437.341 519.473 439.122 520.408C441.418 521.613 442.683 522.277 444.463 525.081Z" fill="black"/>
<path d="M574.511 258.407V344.086H550.031C548.148 344.086 544.006 342.579 542.499 336.553C540.993 330.528 548.148 325.255 551.914 323.372L546.265 320.547C544.382 319.292 540.239 315.84 538.733 312.074C537.227 308.308 541.872 303.6 544.382 301.717C541.871 301.403 536.473 298.892 534.967 291.36C533.46 283.828 541.871 278.179 546.265 276.296C543.754 275.668 539.11 272.53 540.616 264.997C542.122 257.465 563.84 257.465 574.511 258.407Z" fill="#F8D1D1"/>
<path d="M0.000205994 250.874V336.554H24.4798C26.3629 336.554 30.5056 335.047 32.012 329.021C33.5185 322.995 26.3629 317.723 22.5968 315.84L28.2461 313.015C30.1291 311.76 34.2718 308.308 35.7782 304.541C37.2845 300.775 32.6397 296.068 30.129 294.185C32.6398 293.871 38.0379 291.36 39.5444 283.828C41.0508 276.296 32.6399 270.646 28.2461 268.763C30.7568 268.136 35.4017 264.997 33.8953 257.465C32.3888 249.933 10.6709 249.933 0.000205994 250.874Z" fill="#F8D1D1"/>
</svg>
