<svg width="230" height="592" fill="none" xmlns="http://www.w3.org/2000/svg"><path d="M172.225 86.377l-11.863-22.96c-.39-.755-.787-.315-.937 0l-11.863 22.96c-8.221 1.468-25.133 3.79-26.223 4.403-.378.212-.521 1.049 0 1.573l18.419 17.928c-1.457 7.967-4.059 24.193-4.059 25.476 0 .943.937 1.153 1.249.943l23.414-11.637c6.556 3.879 20.292 11.889 22.789 12.895.527.213 1.496-.416 1.249-1.258l-4.371-26.419c5.724-5.557 17.42-16.922 18.419-17.928.999-1.007.417-1.468 0-1.573l-26.223-4.403z" fill="#fff"/><path d="M180.188 258.319l27.562-38.621c.906-1.27-.145-1.576-.784-1.571l-47.433-1.181c-9.282-12.595-27.238-39.073-29.153-40.402-.663-.46-2.148-.018-2.568 1.282l-13.853 45.516c-14.233 4.052-42.91 12.917-45.005 13.963-1.54.769-1.099 2.511-.495 2.864l38.614 29.79c-.844 14.161-2.421 43.735-1.973 48.745.094 1.057 1.933 2.17 3.1 1.069l39.487-28.872c13.868 5.071 42.224 15.427 44.704 16.282 2.48.855 2.746-.498 2.568-1.282l-14.771-47.582z" fill="#FF5C56"/><path d="M97.653 274.36l-12.19-8.146c-3.337 4.13-11.504 13.981-17.473 20.352-7.462 7.965-29.84 39.03-41.125 57.216S.974 405.8 1.172 407.667c.158 1.493 1.114 1.015 1.572.588C49.61 328.987 85.163 301.357 97.081 297.45l.572-23.09z" fill="#FF5C56"/><path d="M74.072 162.837l6.508-22.76c.214-.748-.331-.717-.63-.608l-22.498 7.366c-6.468-4.371-19.331-13.821-20.454-14.126-.388-.106-1.013.35-.993 1.031l1.088 23.713c-6.015 4.282-18.017 13.238-18.827 14.08-.596.619-.098 1.364.245 1.429l23.13 7.558c1.967 6.799 6.165 20.966 7.212 23.247.22.481 1.271.697 1.636-.015l13.743-20.169c7.367.069 22.428.202 23.737.19 1.309-.012 1.208-.693.993-1.032l-14.89-19.904z" fill="#fff"/><path d="M37.947 184.162l-7.092-1.794c-.88 2.499-3.074 8.494-4.816 12.487-2.178 4.99-7.512 23.332-9.78 33.767-2.27 10.435-1.816 33.482-1.412 34.326.324.676.694.291.838.014 8.796-45.094 20.898-64.022 25.849-67.849l-3.587-10.951zM114.588 414.205l13.226-6.228c.434-.205.198-.446.025-.54l-12.57-7.463c-.598-4.783-1.435-14.605-1.75-15.251-.108-.223-.574-.328-.883-.042l-10.58 10.147c-4.435-1.055-13.478-2.993-14.2-3.027-.53-.025-.673.509-.564.695l5.891 13.824c-2.36 3.679-7.239 11.39-7.873 12.804-.134.298.193.874.672.754l14.962-1.812c2.964 3.452 9.025 10.507 9.563 11.111.538.603.813.279.883.042l3.198-15.014z" fill="#fff"/><path d="M89.988 406.084l-2.049-4.026c-1.519.607-5.198 2.024-7.762 2.838-3.205 1.016-13.9 5.995-19.672 9.183-5.773 3.187-16.302 12.768-16.53 13.3-.182.425.147.44.335.395 24.537-14.246 38.254-16.316 42.046-15.571l3.632-6.119z" fill="#fff"/><path d="M67.403 17.766L58.278.316c-.3-.573-.605-.238-.72 0l-9.126 17.45c-6.324 1.116-19.333 2.88-20.172 3.347-.29.161-.4.797 0 1.195l14.168 13.625c-1.12 6.056-3.121 18.387-3.121 19.362 0 .717.72.877.96.717l18.01-8.844c5.044 2.948 15.61 9.035 17.531 9.8.405.162 1.15-.316.96-.956l-3.361-20.079c4.402-4.223 13.4-12.86 14.168-13.625.769-.765.32-1.115 0-1.195l-20.172-3.347z" fill="#FF5C56"/><path d="M110.016 529.364l-15.057-27.858c-.495-.916-.999-.382-1.189 0l-15.057 27.858c-10.434 1.781-31.9 4.598-33.284 5.343-.478.257-.66 1.272 0 1.908l23.378 21.752c-1.849 9.668-5.15 29.355-5.15 30.911 0 1.145 1.188 1.4 1.584 1.145l29.718-14.12c8.321 4.707 25.755 14.425 28.925 15.647.668.257 1.898-.506 1.585-1.527l-5.547-32.056c7.264-6.742 22.109-20.531 23.377-21.752 1.268-1.221.529-1.781 0-1.908l-33.283-5.343z" fill="#fff"/></svg>