<svg width="41" height="59" fill="none" xmlns="http://www.w3.org/2000/svg"><path d="M18.385 2.881v38.173s-8.384-4.49-15.279 2.246c-6.895 6.737-.56 12.725 2.237 14.407 2.795 1.684 11.117 1.49 15.093-1.778 1.026-.842 3.726-4.21 3.912-6.456.186-2.246 0-34.429 0-34.429s3.169-.187 9.318 8.046c1.735 2.324 4.844 5.801.931 17.026-.94 2.696 1.492 1.498 3.169-1.684 1.677-3.181 2.96-7.058 3.169-11.976.371-8.794-6.124-12.018-11.461-17.494-3.728-3.826-6.709-7.486-7.36-8.14-1.546-1.548-3.543-.936-3.729 2.06z" fill="#F95C56"/></svg>