<svg width="394" height="157" viewBox="0 0 394 157" fill="none" xmlns="http://www.w3.org/2000/svg">
<path d="M51.2017 76.3376L39.344 53.3223C38.9542 52.5657 38.5575 53.0071 38.4079 53.3223L26.5502 76.3376C18.3331 77.8089 1.42832 80.1366 0.338547 80.7515C-0.0385452 80.9643 -0.181526 81.8024 0.338547 82.3279L18.7491 100.299C17.2929 108.286 14.6926 124.55 14.6926 125.836C14.6926 126.782 15.6287 126.992 15.9407 126.782L39.344 115.117C45.8969 119.005 59.6268 127.034 62.1232 128.043C62.6496 128.256 63.6184 127.625 63.3714 126.782L59.0027 100.299C64.7235 94.7288 76.4148 83.3368 77.4133 82.3279C78.4119 81.319 77.8294 80.8566 77.4133 80.7515L51.2017 76.3376Z" fill="white"/>
<path d="M94.6927 13.4523L87.9169 0.239845C87.6941 -0.194537 87.4674 0.0588523 87.3819 0.239845L80.6061 13.4523C75.9106 14.2969 66.2508 15.6332 65.628 15.9862C65.4125 16.1084 65.3308 16.5895 65.628 16.8912L76.1484 27.2078C75.3162 31.7929 73.8303 41.1299 73.8303 41.8682C73.8303 42.4111 74.3652 42.5318 74.5436 42.4111L87.9169 35.7144C91.6614 37.9467 99.507 42.5559 100.934 43.1351C101.234 43.2573 101.788 42.8953 101.647 42.4111L99.1504 27.2078C102.419 24.0102 109.1 17.4704 109.671 16.8912C110.241 16.312 109.908 16.0465 109.671 15.9862L94.6927 13.4523Z" fill="#F95C56"/>
<path d="M166.777 25.3857L162.33 16.8615C162.184 16.5813 162.035 16.7448 161.979 16.8615L157.532 25.3857C154.451 25.9306 148.112 26.7927 147.703 27.0205C147.561 27.0993 147.508 27.4097 147.703 27.6043L154.607 34.2602C154.061 37.2183 153.086 43.2422 153.086 43.7185C153.086 44.0688 153.437 44.1467 153.554 44.0688L162.33 39.7483C164.787 41.1885 169.936 44.1622 170.872 44.5359C171.07 44.6147 171.433 44.3812 171.34 44.0688L169.702 34.2602C171.847 32.1973 176.231 27.978 176.606 27.6043C176.98 27.2307 176.762 27.0594 176.606 27.0205L166.777 25.3857Z" fill="white"/>
<path d="M242.061 66.8632L232.109 47.6839C231.782 47.0533 231.449 47.4211 231.324 47.6839L221.372 66.8632C214.475 68.0893 200.287 70.0291 199.373 70.5415C199.056 70.7188 198.936 71.4173 199.373 71.8551L214.824 86.8308C213.602 93.4867 211.42 107.04 211.42 108.112C211.42 108.9 212.205 109.075 212.467 108.9L232.109 99.1792C237.609 102.42 249.132 109.11 251.227 109.951C251.669 110.128 252.482 109.603 252.275 108.9L248.609 86.8308C253.41 82.1892 263.222 72.6959 264.06 71.8551C264.898 71.0144 264.409 70.6291 264.06 70.5415L242.061 66.8632Z" fill="white"/>
<path d="M378.707 101.163L371.931 87.9501C371.708 87.5157 371.482 87.7691 371.396 87.9501L364.62 101.163C359.925 102.007 350.265 103.343 349.642 103.696C349.427 103.819 349.345 104.3 349.642 104.601L360.163 114.918C359.33 119.503 357.844 128.84 357.844 129.578C357.844 130.121 358.379 130.242 358.558 130.121L371.931 123.425C375.676 125.657 383.521 130.266 384.948 130.845C385.249 130.967 385.802 130.605 385.661 130.121L383.165 114.918C386.434 111.72 393.114 105.181 393.685 104.601C394.256 104.022 393.923 103.757 393.685 103.696L378.707 101.163Z" fill="white"/>
<path d="M117.776 89.9492L108.801 77.1793C108.505 76.7595 108.852 76.6611 109.062 76.6643L124.669 76.3876C127.752 72.2664 133.721 63.5983 134.354 63.1657C134.573 63.0159 135.061 63.1648 135.196 63.5935L139.646 78.5993C144.318 79.9659 153.731 82.9497 154.418 83.2988C154.923 83.5555 154.774 84.1275 154.574 84.2421L141.801 93.951C142.045 98.6113 142.495 108.344 142.335 109.991C142.302 110.338 141.694 110.7 141.313 110.335L128.391 100.744C123.817 102.38 114.465 105.72 113.647 105.995C112.829 106.271 112.745 105.825 112.805 105.567L117.776 89.9492Z" fill="white"/>
<path d="M144.89 95.4209L148.919 92.77C150.007 94.1362 152.671 97.3962 154.619 99.5063C157.055 102.144 164.343 112.416 168.013 118.425C171.682 124.434 176.384 138.888 176.314 139.502C176.259 139.993 175.945 139.833 175.795 139.692C160.565 113.505 148.935 104.331 145.023 103.018L144.89 95.4209Z" fill="white"/>
<path d="M353.38 36.6693L359.789 14.7107C359.999 13.9887 359.472 14.0162 359.182 14.1202L337.404 21.1194C331.178 16.8617 318.798 7.6627 317.715 7.3621C317.34 7.25808 316.734 7.69518 316.749 8.3538L317.677 31.2725C311.842 35.3786 300.198 43.9702 299.41 44.7793C298.831 45.3743 299.309 46.0971 299.64 46.1617L321.95 53.5856C323.816 60.1653 327.797 73.8771 328.797 76.0865C329.008 76.5524 330.022 76.7668 330.378 76.0805L343.764 56.6641C350.882 56.7687 365.434 56.9767 366.699 56.9719C367.964 56.967 367.869 56.3087 367.664 55.9802L353.38 36.6693Z" fill="#F95C56"/>
<path d="M318.361 57.0855L311.518 55.3148C310.655 57.7246 308.503 63.5064 306.799 67.355C304.668 72.1657 299.419 89.8617 297.172 99.9326C294.925 110.003 295.241 132.276 295.628 133.094C295.937 133.748 296.296 133.379 296.437 133.112C305.173 89.5843 316.966 71.3584 321.77 67.6864L318.361 57.0855Z" fill="#F95C56"/>
</svg>
