<svg width="568" height="628" viewBox="0 0 568 628" fill="none" xmlns="http://www.w3.org/2000/svg">
<path d="M9 10.3568V628C156.419 621.974 213.957 620.468 224.299 620.468C439.41 618.961 537.063 615.446 559 613.877V6.5907L381.308 0L190.453 10.3568H9Z" fill="white"/>
<path d="M160.549 145.53C165.718 157.997 164.569 159.566 165.718 165.476L139.872 167.969L137.288 157.997C136.426 156.335 133.152 153.01 126.949 153.01C119.196 153.01 108.857 162.983 114.026 170.463C119.196 177.942 121.78 177.942 124.365 180.435C124.365 182.43 134.703 184.591 139.872 185.422C145.041 186.253 156.414 188.912 160.549 192.901C170.887 202.874 168.303 202.874 170.887 205.367C173.472 207.861 173.472 220.327 173.472 222.82C173.472 225.313 170.887 235.286 168.303 237.779C165.718 245.258 157.964 253.569 152.795 257.724C150.211 260.218 129.534 272.684 106.273 260.218C87.6636 250.245 84.7344 232.793 85.5959 225.313H114.026C113.165 228.637 114.687 233.217 121.78 237.779C129.534 242.765 135.324 238.726 137.288 237.779C140.552 236.204 147.109 232.294 145.041 220.327C142.974 208.359 110.455 204.982 106.273 202.874C96.7958 196.225 80.4268 187.915 85.5959 160.49C88.4154 145.53 100.19 136.976 106.273 133.064C114.026 128.078 139.872 130.571 145.041 133.064C151.709 136.281 155.38 138.051 160.549 145.53Z" fill="#0741FF" stroke="#0741FF" stroke-width="0.2"/>
<path d="M160.549 300.961C165.718 313.427 164.569 314.996 165.718 320.906L139.872 323.399L137.288 313.427C136.426 311.765 133.152 308.44 126.949 308.44C119.196 308.44 108.857 318.413 114.026 325.893C119.196 333.372 121.78 333.372 124.365 335.865C124.365 337.86 134.703 340.021 139.872 340.852C145.041 341.683 156.414 344.342 160.549 348.331C170.887 358.304 168.303 358.304 170.887 360.797C173.472 363.291 173.472 375.757 173.472 378.25C173.472 380.743 170.887 390.716 168.303 393.209C165.718 400.689 157.964 408.999 152.795 413.155C150.211 415.648 129.534 428.114 106.273 415.648C87.6636 405.675 84.7344 388.223 85.5959 380.743H114.026C113.165 384.067 114.687 388.647 121.78 393.209C129.534 398.195 135.324 394.156 137.288 393.209C140.552 391.634 147.109 387.724 145.041 375.757C142.974 363.789 107.871 359.425 106.273 358.304C96.7958 351.655 80.4268 343.345 85.5959 315.92C88.4154 300.961 100.19 292.406 106.273 288.495C114.026 283.508 139.872 286.001 145.041 288.495C151.709 291.711 155.38 293.481 160.549 300.961Z" fill="#FF5C56" stroke="#FF5C56" stroke-width="0.2"/>
<path d="M206.085 175.063L208.67 135.172H177.655V185.036V237.393L180.239 264.818H206.085V229.913V217.447V175.063Z" fill="#0741FF" stroke="#0741FF" stroke-width="0.2"/>
<path d="M206.085 329.641L208.67 289.75H177.655V339.614V391.971L180.239 419.396H206.085V389.478V372.026V329.641Z" fill="#FF5C56" stroke="#FF5C56" stroke-width="0.2"/>
<path d="M224.178 252.062L226.763 267.021L252.609 265.651V177.266L262.947 192.516L268.116 202.198L273.286 209.677L281.039 219.65L291.378 237.102C293.962 242.089 297.497 246.415 299.132 249.568L299.132 249.569C301.716 254.555 304.301 259.541 306.885 262.034H335.316C336.177 257.879 337.9 248.571 337.9 244.582C337.9 239.596 335.316 184.745 335.316 179.759V174.773C334.454 162.307 333.248 136.377 335.316 132.388C337.383 128.399 317.224 130.726 306.885 132.388V172.279V219.65C295.685 203.029 288.793 187.239 275.87 167.293C273.933 164.303 257.778 141.53 250.024 132.388H242.271L231.932 134.881H226.763L224.178 137.375V149.841V172.279V199.705V224.636V252.062Z" fill="#0741FF" stroke="#0741FF" stroke-width="0.2"/>
<path d="M224.178 408.842L226.763 423.802L252.609 422.432V334.047L262.947 349.587L268.116 358.979L273.286 366.458L281.039 376.431L291.378 393.883C293.962 398.87 297.497 403.196 299.132 406.349L299.132 406.349C301.716 411.336 304.301 416.322 306.885 418.815H335.316C336.177 414.66 337.9 405.352 337.9 401.363C337.9 396.376 335.316 341.526 335.316 336.54V331.553C334.454 319.087 333.248 293.158 335.316 289.169C337.383 285.18 317.224 287.507 306.885 289.169V329.06V376.431C295.685 359.81 288.793 344.019 275.87 324.074C273.933 321.084 257.778 298.311 250.024 289.169H242.271L231.932 291.662H226.763L224.178 294.155V306.621V329.641V356.485V381.417V408.842Z" fill="#FF5C56" stroke="#FF5C56" stroke-width="0.2"/>
<path d="M475.626 322.589L475.723 322.792L470.554 325.285H444.708L442.124 322.792C439.539 320.299 431.785 315.312 426.616 312.819C421.447 310.326 411.109 307.833 403.355 310.326C397.152 312.321 388.709 316.144 385.263 317.806C382.678 320.299 376.992 326.283 374.924 330.272C372.34 335.258 369.755 345.231 369.755 347.724C369.755 350.217 369.755 355.204 372.34 362.683C374.924 370.163 382.678 380.136 385.263 382.629C387.847 385.122 403.355 392.602 413.693 392.602C424.032 392.602 424.032 390.108 431.785 387.615C437.988 385.621 446.431 375.149 449.877 370.163C446.431 370.163 440.443 371.395 433.529 372.026C429.649 372.379 421.447 372.656 413.693 372.656C407.49 372.656 400.77 373.487 398.186 372.656L395.601 350.217C411.109 350.217 462.8 345.231 480.892 345.231C486.114 345.231 480.892 365.176 480.892 367.67C480.892 370.163 465.385 405.067 444.708 412.547C424.032 420.027 421.447 420.027 408.524 420.027C395.601 420.027 393.016 417.533 380.094 412.547C369.755 408.558 360.278 397.588 356.832 392.602L346.494 370.163C343.909 361.852 340.291 341.74 346.494 327.778C354.248 310.326 354.248 312.819 364.586 302.846C374.924 292.874 380.094 292.874 393.016 287.887C403.355 283.898 419.724 284.563 426.616 285.394C462.575 295.305 470.456 311.781 475.626 322.589Z" fill="#FF5C56" stroke="#FF5C56" stroke-width="0.2"/>
<path d="M475.626 168.011L475.723 168.214L470.554 170.707H444.708L442.124 168.214C439.539 165.721 431.785 160.734 426.616 158.241C421.447 155.748 411.109 153.255 403.355 155.748C397.152 157.743 388.709 161.566 385.263 163.228C382.678 165.721 376.992 171.705 374.924 175.694C372.34 180.68 369.755 190.653 369.755 193.146C369.755 195.639 369.755 200.626 372.34 208.105C374.924 215.585 382.678 225.558 385.263 228.051C387.847 230.544 403.355 238.024 413.693 238.024C424.032 238.024 424.032 235.53 431.785 233.037C437.988 231.043 446.431 220.571 449.877 215.585C446.431 215.585 440.443 216.817 433.529 217.448C429.649 217.801 421.447 218.078 413.693 218.078C407.49 218.078 400.77 218.909 398.186 218.078L395.601 195.639C411.109 195.639 462.8 190.653 480.892 190.653C486.114 190.653 480.892 210.598 480.892 213.092C480.892 215.585 465.385 250.489 444.708 257.969C424.032 265.449 421.447 265.449 408.524 265.449C395.601 265.449 393.016 262.955 380.094 257.969C369.755 253.98 360.278 243.01 356.832 238.024L346.494 215.585C343.909 207.274 340.291 187.162 346.494 173.2C354.248 155.748 354.248 158.241 364.586 148.268C374.924 138.296 380.094 138.296 393.016 133.309C403.355 129.32 419.724 129.985 426.616 130.816C462.575 140.727 470.456 157.203 475.626 168.011Z" fill="#0741FF" stroke="#0741FF" stroke-width="0.2"/>
<path d="M98.4903 70.5359L99.5813 52.2886H86.4895V75.0977V99.0474L87.5805 111.592H98.4903V95.626V89.9237V70.5359Z" fill="black"/>
<path d="M103.463 106.562L104.554 113.405L115.464 112.779V72.3487L119.828 79.3243L122.01 83.7532L124.192 87.1746L127.465 91.7364L131.829 99.7196C132.92 102.001 134.412 103.979 135.102 105.422C136.193 107.703 137.284 109.984 138.374 111.124H150.375C150.739 109.223 151.466 104.966 151.466 103.141C151.466 100.86 150.375 75.77 150.375 73.4891V71.2082C150.012 65.5059 149.502 53.6451 150.375 51.8204C151.248 49.9957 142.738 51.0601 138.374 51.8204V70.0677V91.7364C133.647 84.1334 130.738 76.9105 125.283 67.7868C124.465 66.4191 117.646 56.0021 114.373 51.8204H111.1L106.736 52.9609H104.554L103.463 54.1013V59.8036V70.0677V82.6128V94.0173V106.562Z" fill="black"/>
<path d="M226.896 70.5359L227.987 52.2886H214.895V75.0977V99.0474L215.986 111.592H226.896V95.626V89.9237V70.5359Z" fill="black"/>
<path d="M294.593 108.038L295.684 114.881L306.594 114.254V73.8244L310.957 80.8L313.139 85.2289L315.321 88.6503L318.594 93.2122L322.958 101.195C324.049 103.476 325.541 105.455 326.231 106.898C327.322 109.179 328.413 111.459 329.504 112.6H341.505C341.869 110.699 342.596 106.441 342.596 104.617C342.596 102.336 341.505 77.2457 341.505 74.9648V72.6839C341.141 66.9816 340.632 55.1208 341.505 53.2961C342.378 51.4714 333.868 52.5358 329.504 53.2961V71.5434V93.2121C324.777 85.6091 321.867 78.3862 316.412 69.2625C315.595 67.8948 308.776 57.4778 305.503 53.2961H302.23L297.866 54.4366H295.684L294.593 55.577V61.2793V71.5434V84.0885V95.4931V108.038Z" fill="black"/>
<path d="M287.821 69.5912L287.861 69.6838L285.679 70.8243H274.77L273.679 69.6838C272.588 68.5434 269.315 66.2625 267.133 65.122C264.951 63.9815 260.587 62.8411 257.314 63.9815C254.696 64.8939 251.132 66.6426 249.677 67.4029C248.586 68.5434 246.186 71.2805 245.313 73.1052C244.222 75.3861 243.131 79.948 243.131 81.0884C243.131 82.2289 243.131 84.5098 244.222 87.9312C245.313 91.3525 248.586 95.9144 249.677 97.0548C250.768 98.1953 257.314 101.617 261.678 101.617C266.042 101.617 266.042 100.476 269.315 99.3357C271.933 98.4234 275.497 93.6335 276.952 91.3525C275.497 91.3525 272.969 91.9162 270.051 92.2046C268.413 92.3665 264.951 92.493 261.678 92.493C259.06 92.493 256.223 92.8731 255.132 92.493L254.041 82.2289C260.587 82.2289 282.407 79.948 290.043 79.948C292.247 79.948 290.043 89.0716 290.043 90.2121C290.043 91.3525 283.497 107.319 274.77 110.74C266.042 114.162 264.951 114.162 259.496 114.162C254.041 114.162 252.95 113.021 247.495 110.74C243.131 108.916 239.131 103.898 237.676 101.617L233.312 91.3525C232.221 87.551 230.694 78.3513 233.312 71.9647C236.585 63.9815 236.585 65.122 240.949 60.5602C245.313 55.9983 247.495 55.9983 252.95 53.7174C257.314 51.8927 264.224 52.1968 267.133 52.577C282.311 57.1104 285.638 64.6472 287.821 69.5912Z" fill="black"/>
<path d="M366.368 70.5359L367.459 52.2886H354.368V75.0977V99.0474L355.459 111.592H366.368V95.626V89.9237V70.5359Z" fill="black"/>
<path d="M379.459 107.3L380.55 114.143L391.46 113.516V73.0863L395.824 80.062L398.006 84.4909L400.188 87.9123L403.461 92.4741L407.824 100.457C408.915 102.738 410.407 104.717 411.097 106.16C412.188 108.441 413.279 110.721 414.37 111.862H426.371C426.735 109.961 427.462 105.703 427.462 103.879C427.462 101.598 426.371 76.5077 426.371 74.2268V71.9459C426.007 66.2436 425.498 54.3828 426.371 52.5581C427.244 50.7333 418.734 51.7978 414.37 52.5581V70.8054V92.4741C409.643 84.871 406.733 77.6481 401.279 68.5245C400.461 67.1568 393.642 56.7397 390.369 52.5581H387.096L382.732 53.6985H380.55L379.459 54.839V60.5413V70.8054V83.3504V94.755V107.3Z" fill="black"/>
<path d="M483.379 66.6394L483.42 66.732L481.238 67.8725H470.328L469.237 66.732C468.146 65.5916 464.873 63.3107 462.691 62.1702C460.509 61.0298 456.146 59.8893 452.873 61.0298C450.254 61.9421 446.69 63.6908 445.236 64.4511C444.145 65.5916 441.745 68.3287 440.872 70.1534C439.781 72.4343 438.69 76.9962 438.69 78.1366C438.69 79.2771 438.69 81.558 439.781 84.9794C440.872 88.4008 444.145 92.9626 445.236 94.103C446.327 95.2435 452.873 98.6649 457.236 98.6649C461.6 98.6649 461.6 97.5244 464.873 96.384C467.492 95.4716 471.056 90.6817 472.51 88.4008C471.056 88.4008 468.528 88.9644 465.61 89.2528C463.972 89.4147 460.509 89.5412 457.236 89.5412C454.618 89.5412 451.782 89.9214 450.691 89.5412L449.6 79.2771C456.146 79.2771 477.965 76.9962 485.602 76.9962C487.806 76.9962 485.602 86.1198 485.602 87.2603C485.602 88.4008 479.056 104.367 470.328 107.789C461.6 111.21 460.509 111.21 455.055 111.21C449.6 111.21 448.509 110.069 443.054 107.789C438.69 105.964 434.69 100.946 433.235 98.6649L428.871 88.4008C427.78 84.5992 426.253 75.3995 428.871 69.013C432.144 61.0298 432.144 62.1702 436.508 57.6084C440.872 53.0466 443.054 53.0465 448.509 50.7656C452.873 48.9409 459.782 49.245 462.691 49.6252C477.87 54.1586 481.197 61.6954 483.379 66.6394Z" fill="black"/>
<path d="M176.336 112.063L155.857 52.2886H167.559L182.187 93.4448L197.789 52.2886H210.466L186.087 112.063H176.336Z" fill="black"/>
<path d="M122.027 447.436L108.271 466.301H106.895V448.615H95.8906V496.957L108.271 495.778V478.092L124.778 495.778L137.158 494.599L116.524 471.017L133.031 447.436H122.027Z" fill="#0741FF"/>
<path d="M146.305 480.359V448.633L135.782 447.436V482.155C136.195 487.742 140.486 498.796 154.352 498.318C168.218 497.839 172.51 487.343 172.923 482.155V448.633H162.4V482.155C161.987 483.951 159.8 487.662 154.352 488.141C148.905 488.62 146.718 483.153 146.305 480.359Z" fill="#0741FF"/>
<path d="M181.177 491.543L182.021 496.957L190.462 496.461V464.474L193.838 469.993L195.526 473.497L197.215 476.204L199.747 479.813L203.123 486.129C203.967 487.934 205.122 489.5 205.656 490.641C206.5 492.446 207.344 494.25 208.188 495.152H217.473C217.755 493.649 218.317 490.28 218.317 488.836C218.317 487.032 217.473 467.181 217.473 465.377V463.572C217.192 459.061 216.798 449.677 217.473 448.233C218.149 446.789 211.564 447.632 208.188 448.233V462.67V479.813C204.53 473.798 202.279 468.084 198.059 460.865C197.426 459.783 192.15 451.541 189.618 448.233H187.085L183.709 449.135H182.021L181.177 450.038V454.549V462.67V472.595V481.618V491.543Z" fill="#0741FF"/>
<path d="M266.608 461.284L266.641 461.358L264.865 462.271H255.986L255.098 461.358C254.21 460.446 251.547 458.62 249.771 457.707C247.995 456.795 244.443 455.882 241.78 456.795C239.649 457.525 236.748 458.924 235.564 459.533C234.676 460.446 232.723 462.636 232.013 464.097C231.125 465.922 230.237 469.574 230.237 470.486C230.237 471.399 230.237 473.225 231.125 475.963C232.013 478.701 234.676 482.353 235.564 483.265C236.452 484.178 241.78 486.916 245.331 486.916C248.883 486.916 248.883 486.004 251.547 485.091C253.678 484.361 256.578 480.527 257.762 478.701C256.578 478.701 254.521 479.153 252.146 479.383C250.813 479.513 247.995 479.614 245.331 479.614C243.2 479.614 240.892 479.918 240.004 479.614L239.116 471.399C244.443 471.399 262.202 469.574 268.417 469.574C270.211 469.574 268.417 476.876 268.417 477.789C268.417 478.701 263.09 491.48 255.986 494.219C248.883 496.957 247.995 496.957 243.555 496.957C239.116 496.957 238.228 496.044 233.788 494.219C230.237 492.758 226.981 488.742 225.797 486.916L222.245 478.701C221.358 475.659 220.114 468.296 222.245 463.184C224.909 456.795 224.909 457.707 228.461 454.056C232.013 450.405 233.788 450.405 238.228 448.58C241.78 447.119 247.403 447.362 249.771 447.667C262.124 451.295 264.832 457.327 266.608 461.284Z" fill="#0741FF"/>
<path d="M301.754 451.98C303.595 456.79 303.186 457.396 303.595 459.676L294.393 460.638L293.472 456.79C293.166 456.149 292 454.866 289.791 454.866C287.031 454.866 283.35 458.714 285.19 461.6C287.031 464.486 287.951 464.486 288.871 465.447C288.871 466.217 292.552 467.051 294.393 467.371C296.233 467.692 300.282 468.718 301.754 470.257C305.435 474.105 304.515 474.105 305.435 475.067C306.355 476.029 306.355 480.838 306.355 481.8C306.355 482.762 305.435 486.61 304.515 487.572C303.595 490.457 300.834 493.664 298.994 495.267C298.073 496.229 290.712 501.038 282.43 496.229C275.804 492.381 274.761 485.648 275.068 482.762H285.19C284.884 484.045 285.426 485.812 287.951 487.572C290.712 489.495 292.773 487.937 293.472 487.572C294.635 486.964 296.969 485.455 296.233 480.838C295.497 476.221 282.999 474.537 282.43 474.105C279.056 471.54 273.228 468.333 275.068 457.752C276.072 451.98 280.264 448.68 282.43 447.171C285.19 445.247 294.393 446.209 296.233 447.171C298.607 448.412 299.914 449.095 301.754 451.98Z" fill="#0741FF"/>
<path d="M323 466.006V447.436H311.858L313.715 496.957H323V477.768H337.857V496.957H348.999V447.436H337.857V466.006H323Z" fill="#0741FF"/>
<path fill-rule="evenodd" clip-rule="evenodd" d="M385.878 498.774C400.367 498.774 412.112 487.028 412.112 472.539C412.112 458.05 400.367 446.304 385.878 446.304C371.388 446.304 359.643 458.05 359.643 472.539C359.643 487.028 371.388 498.774 385.878 498.774ZM385.878 490.903C396.02 490.903 404.242 482.681 404.242 472.539C404.242 462.396 396.02 454.174 385.878 454.174C375.735 454.174 367.513 462.396 367.513 472.539C367.513 482.681 375.735 490.903 385.878 490.903Z" fill="#0741FF"/>
<circle cx="362.557" cy="452.134" r="5.82999" fill="#0741FF"/>
<circle cx="362.755" cy="451.562" r="2.75117" fill="white"/>
<circle cx="409.197" cy="452.134" r="5.82999" fill="#0741FF"/>
<circle cx="409.525" cy="451.562" r="2.75117" fill="white"/>
<path d="M428.063 472.548C427.791 469.13 427.791 454.32 428.063 447.199L438.135 446.06C438.589 458.972 438.407 485.08 438.135 487.643C437.866 490.175 434.234 492.77 432.963 493.909C431.33 495.238 426.702 497.669 421.258 496.757C415.814 495.846 413.001 487.453 412.275 483.371H421.53C421.53 483.941 421.803 484.51 422.075 485.65C422.405 487.031 424.253 487.928 426.43 486.789C428.608 485.65 428.387 476.612 428.063 472.548Z" fill="#0741FF"/>
<path d="M446.666 494.418V447.436H469.204C474.537 447.436 480.949 454.208 483.489 457.594C485.394 461.086 488.568 470.165 486.028 478.545C482.854 489.021 473.966 492.83 471.426 494.418C469.394 495.687 455.131 496.64 448.253 496.957L446.666 494.418Z" fill="#0741FF"/>
<path d="M456.507 487.751V456.959C463.914 456.007 478.41 457.657 477.141 471.879C475.871 486.1 462.856 488.386 456.507 487.751Z" fill="white"/>
<circle cx="386.139" cy="472.196" r="17.1315" fill="white" stroke="#0741FF" stroke-width="4"/>
<path d="M107.395 521.781L82.729 583.315H95.062L101.228 566.393H122.811L128.978 583.315H139.769L141.311 580.238L116.645 521.781H107.395Z" fill="black"/>
<path d="M398.762 517.166L374.096 578.7H386.429L392.596 561.778H414.178L420.345 578.7H431.136L432.678 575.623L408.012 517.166H398.762Z" fill="black"/>
<path d="M110.478 541.01L105.853 555.625L116.645 554.086L110.478 541.01Z" fill="white"/>
<path d="M403.387 539.472L398.762 554.086L409.553 552.548L403.387 539.472Z" fill="white"/>
<path d="M145.936 576.588L147.162 583.315L159.425 582.699V542.953L164.33 549.941L166.783 554.164L169.235 557.528L172.914 562.013L177.819 569.861C179.046 572.103 180.723 574.049 181.498 575.467C182.725 577.709 183.951 579.951 185.177 581.073H198.666C199.075 579.204 199.893 575.018 199.893 573.224C199.893 570.982 198.666 546.316 198.666 544.074V541.832C198.258 536.226 197.685 524.565 198.666 522.772C199.647 520.978 190.082 522.024 185.177 522.772V540.71V562.013C179.863 554.538 176.593 547.437 170.462 538.468C169.542 537.123 161.878 526.882 158.199 522.772H154.52L149.615 523.893H147.162L145.936 525.014V530.62V540.972V553.043V564.255V576.588Z" fill="black"/>
<path d="M437.302 573.343L438.388 580.238L449.25 579.607V538.867L453.594 546.03L455.767 550.359L457.939 553.807L461.197 558.404L465.542 566.448C466.628 568.746 468.114 570.74 468.8 572.194C469.887 574.492 470.973 576.791 472.059 577.94H484.006C484.369 576.025 485.093 571.734 485.093 569.896C485.093 567.597 484.006 542.315 484.006 540.016V537.718C483.644 531.972 483.138 520.02 484.006 518.181C484.875 516.343 476.403 517.415 472.059 518.181V536.569V558.404C467.352 550.742 464.456 543.464 459.025 534.27C458.211 532.892 451.422 522.395 448.164 518.181H444.905L440.561 519.331H438.388L437.302 520.48V526.226V536.837V549.21V560.702V573.343Z" fill="black"/>
<path d="M210.7 580.238H223.161L221.603 543.318L235.622 580.238L244.968 578.7L257.429 541.78L258.955 579.459H270.807L269.89 551.01L268.333 521.781L252.756 521.781L238.737 561.778L224.719 521.781H209.142L210.7 580.238Z" fill="black"/>
<path d="M351.249 566.526L348.922 519.492L337.674 518.528L336.691 579.329L370.78 578.236L371.637 568.273L351.249 566.526Z" fill="black"/>
<path d="M304.415 521.549L305.617 523.946C305.638 523.598 305.682 523.238 305.751 522.865C307.087 515.628 313.099 515.628 315.103 515.628C317.107 515.628 323.12 518.26 323.12 524.181C323.12 528.918 318.221 531.419 315.771 532.077C314.05 532.416 311.086 531.881 308.801 530.292L332.472 577.476H319.111L311.095 564.975H291.054L285.042 580.766H272.349L285.042 543.92L289.267 533.036C288.954 533.381 288.005 533.955 285.71 534.709C282.503 535.761 279.92 533.831 279.029 532.735C277.47 530.98 274.887 526.55 277.025 522.865C279.697 518.26 281.701 518.26 285.71 518.26C288.916 518.26 291.054 521.769 291.722 523.523L291.555 527.142L293.726 521.549H304.415Z" fill="black"/>
<path d="M299.834 536.198L294.681 552.482L306.705 550.768L299.834 536.198Z" fill="white"/>
<ellipse cx="284.374" cy="525.913" rx="3.43562" ry="3.42832" fill="white"/>
<ellipse cx="314.435" cy="523.342" rx="4.29453" ry="4.2854" fill="white"/>
<path d="M568 251.422V336H543.349C541.453 336 537.281 334.513 535.764 328.565C534.248 322.616 541.453 317.411 545.246 315.553L539.557 312.764C537.661 311.525 533.489 308.117 531.972 304.399C530.455 300.682 535.132 296.035 537.661 294.176C535.132 293.866 529.696 291.387 528.18 283.952C526.663 276.517 535.132 270.94 539.557 269.081C537.028 268.462 532.351 265.364 533.868 257.928C535.385 250.493 557.255 250.493 568 251.422Z" fill="#F8D1D1"/>
<path d="M0 234.427V320H24.6507C26.5469 320 30.7185 318.495 32.2355 312.477C33.7525 306.459 26.5469 301.193 22.7544 299.312L28.4432 296.491C30.3395 295.237 34.5111 291.789 36.0279 288.028C37.5448 284.266 32.8675 279.564 30.3393 277.684C32.8676 277.37 38.3035 274.863 39.8205 267.34C41.3375 259.817 32.8677 254.175 28.4432 252.294C30.9715 251.667 35.6489 248.533 34.1319 241.01C32.6149 233.487 10.7452 233.487 0 234.427Z" fill="#F8D1D1"/>
</svg>
