<svg width="302" height="379" viewBox="0 0 302 379" fill="none" xmlns="http://www.w3.org/2000/svg">
<path d="M9 5.5V379C75 373 109.5 373.167 118.5 374C227.7 374 281 370.667 294 369V3.5L197.5 0L95.5 7L9 5.5Z" fill="white"/>
<path d="M84.389 93.1612C87.1383 99.7915 86.5273 100.626 87.1383 103.769L73.392 105.096L72.0173 99.7915C71.5591 98.9074 69.8179 97.1394 66.5188 97.1394C62.3949 97.1394 56.8964 102.444 59.6457 106.422C62.3949 110.4 63.7696 110.4 65.1442 111.726C65.1442 112.786 70.6427 113.936 73.392 114.378C76.1412 114.82 82.1896 116.234 84.389 118.356C89.8875 123.66 88.5129 123.66 89.8875 124.986C91.2622 126.312 91.2622 132.942 91.2622 134.268C91.2622 135.594 89.8875 140.898 88.5129 142.224C87.1383 146.202 83.0144 150.622 80.2651 152.832C78.8905 154.158 67.8934 160.789 55.5217 154.158C45.6244 148.854 44.0665 139.572 44.5247 135.594H59.6457C59.1874 137.362 59.9969 139.798 63.7696 142.224C67.8934 144.876 70.9731 142.728 72.0173 142.224C73.7537 141.387 77.2409 139.307 76.1412 132.942C75.0415 126.577 57.7463 124.781 55.5217 123.66C50.4814 120.124 41.7755 115.704 44.5247 101.117C46.0243 93.1612 52.2867 88.6115 55.5217 86.5311C59.6457 83.8792 73.392 85.2051 76.1412 86.5311C79.6876 88.2416 81.6398 89.1833 84.389 93.1612Z" fill="#0741FF" stroke="#0741FF" stroke-width="0.2"/>
<path d="M84.389 175.828C87.1383 182.458 86.5273 183.293 87.1383 186.436L73.392 187.762L72.0173 182.458C71.5591 181.574 69.8179 179.806 66.5188 179.806C62.3949 179.806 56.8964 185.11 59.6457 189.088C62.3949 193.066 63.7696 193.066 65.1442 194.392C65.1442 195.453 70.6427 196.602 73.392 197.044C76.1412 197.486 82.1896 198.901 84.389 201.022C89.8875 206.326 88.5129 206.326 89.8875 207.652C91.2622 208.979 91.2622 215.609 91.2622 216.935C91.2622 218.261 89.8875 223.565 88.5129 224.891C87.1383 228.869 83.0144 233.289 80.2651 235.499C78.8905 236.825 67.8934 243.455 55.5217 236.825C45.6244 231.521 44.0665 222.239 44.5247 218.261H59.6457C59.1874 220.029 59.9969 222.465 63.7696 224.891C67.8934 227.543 70.9731 225.394 72.0173 224.891C73.7537 224.053 77.2409 221.973 76.1412 215.609C75.0415 209.244 56.3717 206.923 55.5217 206.326C50.4814 202.79 41.7755 198.37 44.5247 183.784C46.0243 175.828 52.2867 171.278 55.5217 169.198C59.6457 166.546 73.392 167.872 76.1412 169.198C79.6876 170.908 81.6398 171.85 84.389 175.828Z" fill="#FF5C56" stroke="#FF5C56" stroke-width="0.2"/>
<path d="M108.608 108.868L109.982 87.652H93.4868V114.172V142.019L94.8614 156.605H108.608V138.041V131.411V108.868Z" fill="#0741FF" stroke="#0741FF" stroke-width="0.2"/>
<path d="M108.608 191.082L109.982 169.865H93.4868V196.386V224.232L94.8614 238.819H108.608V222.906V213.624V191.082Z" fill="#FF5C56" stroke="#FF5C56" stroke-width="0.2"/>
<path d="M118.231 149.821L119.605 157.777L133.352 157.048V110.04L138.85 118.151L141.599 123.3L144.349 127.278L148.473 132.582L153.971 141.864C155.346 144.516 157.226 146.817 158.095 148.495C159.47 151.147 160.844 153.799 162.219 155.125H177.34C177.798 152.915 178.714 147.964 178.714 145.842C178.714 143.19 177.34 114.018 177.34 111.366V108.714C176.882 102.084 176.24 88.2931 177.34 86.1715C178.44 84.0498 167.717 85.2874 162.219 86.1715V107.388V132.582C156.262 123.742 152.596 115.344 145.723 104.736C144.693 103.146 136.101 91.0335 131.977 86.1715H127.853L122.355 87.4975H119.605L118.231 88.8235V95.4536V107.388V121.974V135.234V149.821Z" fill="#0741FF" stroke="#0741FF" stroke-width="0.2"/>
<path d="M118.231 233.205L119.605 241.162L133.352 240.433V193.425L138.85 201.69L141.599 206.685L144.349 210.663L148.473 215.967L153.971 225.249C155.346 227.901 157.226 230.202 158.095 231.879C159.47 234.531 160.844 237.184 162.219 238.51H177.34C177.798 236.3 178.714 231.349 178.714 229.227C178.714 226.575 177.34 197.403 177.34 194.751V192.099C176.882 185.469 176.24 171.678 177.34 169.556C178.44 167.435 167.717 168.672 162.219 169.556V190.773V215.967C156.262 207.127 152.596 198.729 145.723 188.121C144.693 186.53 136.101 174.418 131.977 169.556H127.853L122.355 170.882H119.605L118.231 172.208V178.839V191.082V205.359V218.619V233.205Z" fill="#FF5C56" stroke="#FF5C56" stroke-width="0.2"/>
<path d="M251.965 187.331L252.017 187.439L249.267 188.765H235.521L234.146 187.439C232.772 186.113 228.648 183.461 225.899 182.135C223.149 180.809 217.651 179.483 213.527 180.809C210.228 181.87 205.737 183.903 203.904 184.787C202.53 186.113 199.506 189.295 198.406 191.417C197.031 194.069 195.657 199.373 195.657 200.699C195.657 202.025 195.657 204.677 197.031 208.655C198.406 212.633 202.53 217.938 203.904 219.264C205.279 220.59 213.527 224.568 219.025 224.568C224.524 224.568 224.524 223.242 228.648 221.916C231.947 220.855 236.437 215.286 238.27 212.633C236.437 212.633 233.252 213.289 229.575 213.624C227.512 213.812 223.149 213.959 219.025 213.959C215.726 213.959 212.152 214.401 210.778 213.959L209.403 202.025C217.651 202.025 245.143 199.373 254.766 199.373C257.543 199.373 254.766 209.981 254.766 211.307C254.766 212.633 246.518 231.198 235.521 235.176C224.524 239.154 223.149 239.154 216.276 239.154C209.403 239.154 208.028 237.828 201.155 235.176C195.657 233.054 190.616 227.22 188.784 224.568L183.285 212.633C181.91 208.213 179.986 197.517 183.285 190.091C187.409 180.809 187.409 182.135 192.907 176.831C198.406 171.527 201.155 171.527 208.028 168.875C213.527 166.753 222.233 167.107 225.899 167.549C245.023 172.82 249.215 181.583 251.965 187.331Z" fill="#FF5C56" stroke="#FF5C56" stroke-width="0.2"/>
<path d="M251.965 105.118L252.017 105.226L249.267 106.552H235.521L234.146 105.226C232.772 103.9 228.648 101.248 225.899 99.9216C223.149 98.5955 217.651 97.2695 213.527 98.5955C210.228 99.6564 205.737 101.69 203.904 102.574C202.53 103.9 199.506 107.082 198.406 109.204C197.031 111.856 195.657 117.16 195.657 118.486C195.657 119.812 195.657 122.464 197.031 126.442C198.406 130.42 202.53 135.724 203.904 137.05C205.279 138.376 213.527 142.354 219.025 142.354C224.524 142.354 224.524 141.028 228.648 139.702C231.947 138.641 236.437 133.072 238.27 130.42C236.437 130.42 233.252 131.075 229.575 131.411C227.512 131.599 223.149 131.746 219.025 131.746C215.726 131.746 212.152 132.188 210.778 131.746L209.403 119.812C217.651 119.812 245.143 117.16 254.766 117.16C257.543 117.16 254.766 127.768 254.766 129.094C254.766 130.42 246.518 148.984 235.521 152.962C224.524 156.941 223.149 156.941 216.276 156.941C209.403 156.941 208.028 155.615 201.155 152.962C195.657 150.841 190.616 145.006 188.784 142.354L183.285 130.42C181.91 126 179.986 115.303 183.285 107.878C187.409 98.5955 187.409 99.9216 192.907 94.6175C198.406 89.3134 201.155 89.3134 208.028 86.6613C213.527 84.5397 222.233 84.8933 225.899 85.3353C245.023 90.6063 249.215 99.3695 251.965 105.118Z" fill="#0741FF" stroke="#0741FF" stroke-width="0.2"/>
<path d="M61.9007 255.732L54.5845 265.765H53.8529V256.359H48V282.07L54.5845 281.443V272.036L63.3639 281.443L69.9485 280.816L58.9742 268.274L67.7536 255.732H61.9007Z" fill="#0741FF"/>
<path d="M74.8134 273.242V256.368L69.2166 255.732V274.197C69.436 277.169 71.7187 283.048 79.0934 282.793C86.468 282.539 88.7507 276.957 88.9702 274.197V256.368H83.3733V274.197C83.1538 275.152 81.9906 277.126 79.0934 277.381C76.1962 277.636 75.0329 274.728 74.8134 273.242Z" fill="#0741FF"/>
<path d="M93.3599 279.19L93.8088 282.07L98.2983 281.806V264.794L100.094 267.729L100.992 269.593L101.89 271.032L103.237 272.952L105.032 276.311C105.481 277.271 106.095 278.104 106.379 278.711C106.828 279.67 107.277 280.63 107.726 281.11H112.665C112.814 280.31 113.113 278.519 113.113 277.751C113.113 276.791 112.665 266.233 112.665 265.274V264.314C112.515 261.914 112.305 256.923 112.665 256.156C113.024 255.388 109.522 255.836 107.726 256.156V263.834V272.952C105.781 269.753 104.584 266.713 102.339 262.874C102.002 262.299 99.1962 257.915 97.8493 256.156H96.5025L94.7067 256.636H93.8088L93.3599 257.115V259.515V263.834V269.113V273.912V279.19Z" fill="#0741FF"/>
<path d="M138.797 263.097L138.815 263.136L137.87 263.622H133.148L132.676 263.136C132.203 262.651 130.787 261.68 129.842 261.195C128.898 260.709 127.009 260.224 125.592 260.709C124.459 261.098 122.916 261.842 122.286 262.166C121.814 262.651 120.775 263.816 120.397 264.593C119.925 265.564 119.453 267.506 119.453 267.991C119.453 268.477 119.453 269.448 119.925 270.904C120.397 272.36 121.814 274.302 122.286 274.788C122.759 275.273 125.592 276.73 127.481 276.73C129.37 276.73 129.37 276.244 130.787 275.759C131.92 275.37 133.463 273.331 134.092 272.36C133.463 272.36 132.369 272.6 131.105 272.723C130.396 272.792 128.898 272.846 127.481 272.846C126.348 272.846 125.12 273.008 124.648 272.846L124.175 268.477C127.009 268.477 136.454 267.506 139.759 267.506C140.713 267.506 139.759 271.389 139.759 271.875C139.759 272.36 136.926 279.157 133.148 280.613C129.37 282.07 128.898 282.07 126.537 282.07C124.175 282.07 123.703 281.584 121.342 280.613C119.453 279.837 117.721 277.701 117.092 276.73L115.203 272.36C114.73 270.742 114.069 266.826 115.203 264.107C116.619 260.709 116.619 261.195 118.508 259.253C120.397 257.311 121.342 257.311 123.703 256.34C125.592 255.563 128.583 255.693 129.842 255.854C136.413 257.784 137.853 260.993 138.797 263.097Z" fill="#0741FF"/>
<path d="M157.49 258.149C158.469 260.707 158.251 261.029 158.469 262.242L153.575 262.753L153.085 260.707C152.922 260.366 152.302 259.684 151.127 259.684C149.659 259.684 147.701 261.73 148.68 263.265C149.659 264.8 150.149 264.8 150.638 265.311C150.638 265.721 152.596 266.164 153.575 266.334C154.553 266.505 156.707 267.051 157.49 267.869C159.448 269.916 158.958 269.916 159.448 270.427C159.937 270.939 159.937 273.497 159.937 274.009C159.937 274.52 159.448 276.567 158.958 277.078C158.469 278.613 157 280.318 156.022 281.171C155.532 281.683 151.617 284.241 147.212 281.683C143.688 279.636 143.134 276.055 143.297 274.52H148.68C148.517 275.202 148.805 276.142 150.149 277.078C151.617 278.101 152.713 277.272 153.085 277.078C153.703 276.755 154.945 275.953 154.553 273.497C154.162 271.041 147.515 270.146 147.212 269.916C145.418 268.551 142.318 266.846 143.297 261.218C143.831 258.149 146.06 256.393 147.212 255.591C148.68 254.568 153.575 255.079 154.553 255.591C155.816 256.251 156.511 256.614 157.49 258.149Z" fill="#0741FF"/>
<path d="M168.79 265.608V255.732H162.864L163.851 282.07H168.79V271.864H176.691V282.07H182.617V255.732H176.691V265.608H168.79Z" fill="#0741FF"/>
<path fill-rule="evenodd" clip-rule="evenodd" d="M202.231 283.036C209.937 283.036 216.185 276.789 216.185 269.083C216.185 261.377 209.937 255.13 202.231 255.13C194.525 255.13 188.278 261.377 188.278 269.083C188.278 276.789 194.525 283.036 202.231 283.036ZM202.231 278.85C207.626 278.85 211.999 274.477 211.999 269.083C211.999 263.689 207.626 259.316 202.231 259.316C196.837 259.316 192.464 263.689 192.464 269.083C192.464 274.477 196.837 278.85 202.231 278.85Z" fill="#0741FF"/>
<circle cx="189.828" cy="258.23" r="3.10072" fill="#0741FF"/>
<circle cx="189.933" cy="257.926" r="1.46323" fill="white"/>
<circle cx="214.634" cy="258.23" r="3.10072" fill="#0741FF"/>
<circle cx="214.808" cy="257.926" r="1.46323" fill="white"/>
<path d="M224.668 269.088C224.524 267.27 224.524 259.393 224.668 255.606L230.025 255C230.266 261.867 230.17 275.753 230.025 277.116C229.882 278.463 227.95 279.843 227.274 280.449C226.406 281.156 223.945 282.448 221.049 281.964C218.154 281.479 216.658 277.015 216.271 274.844H221.194C221.194 275.147 221.339 275.45 221.483 276.056C221.659 276.791 222.642 277.268 223.8 276.662C224.958 276.056 224.841 271.249 224.668 269.088Z" fill="#0741FF"/>
<path d="M234.562 280.719V255.732H246.549C249.386 255.732 252.796 259.333 254.147 261.134C255.16 262.992 256.848 267.82 255.497 272.277C253.809 277.849 249.082 279.875 247.731 280.719C246.651 281.395 239.064 281.901 235.406 282.07L234.562 280.719Z" fill="#0741FF"/>
<path d="M239.796 277.174V260.797C243.736 260.29 251.446 261.168 250.77 268.732C250.095 276.296 243.173 277.511 239.796 277.174Z" fill="white"/>
<circle cx="202.371" cy="268.901" r="10.0478" fill="white" stroke="#0741FF" stroke-width="4"/>
<path d="M52.3827 48.2749L52.9629 38.5699H46V50.7012V63.4389L46.5802 70.1111H52.3827V61.6192V58.5864V48.2749Z" fill="black"/>
<path d="M55.0276 67.4358L55.6078 71.0752L61.4103 70.7419V49.239L63.7313 52.949L64.8918 55.3046L66.0522 57.1243L67.793 59.5505L70.114 63.7964C70.6942 65.0096 71.4877 66.062 71.8547 66.8292C72.4349 68.0424 73.0152 69.2555 73.5954 69.862H79.9781C80.1715 68.8511 80.5584 66.5866 80.5584 65.6161C80.5584 64.403 79.9781 51.0587 79.9781 49.8455V48.6324C79.7847 45.5996 79.5139 39.2914 79.9781 38.3209C80.4423 37.3504 75.9164 37.9165 73.5954 38.3209V48.0259V59.5505C71.081 55.5068 69.5337 51.6652 66.6325 46.8127C66.1976 46.0853 62.5708 40.545 60.83 38.3209H59.0893L56.7683 38.9275H55.6078L55.0276 39.534V42.5668V48.0259V54.698V60.7636V67.4358Z" fill="black"/>
<path d="M120.676 48.2749L121.256 38.5699H114.293V50.7012V63.4389L114.873 70.1111H120.676V61.6192V58.5864V48.2749Z" fill="black"/>
<path d="M156.681 68.2207L157.261 71.8601L163.064 71.5268V50.0239L165.385 53.734L166.545 56.0895L167.706 57.9092L169.447 60.3354L171.768 64.5813C172.348 65.7945 173.141 66.8469 173.508 67.6142C174.089 68.8273 174.669 70.0404 175.249 70.647H181.632C181.825 69.636 182.212 67.3715 182.212 66.401C182.212 65.1879 181.632 51.8436 181.632 50.6305V49.4173C181.438 46.3845 181.167 40.0763 181.632 39.1058C182.096 38.1353 177.57 38.7014 175.249 39.1058V48.8108V60.3354C172.735 56.2917 171.187 52.4501 168.286 47.5977C167.851 46.8702 164.224 41.3299 162.484 39.1058H160.743L158.422 39.7124H157.261L156.681 40.3189V43.3517V48.8108V55.4829V61.5485V68.2207Z" fill="black"/>
<path d="M153.079 47.7724L153.101 47.8217L151.941 48.4283H146.138L145.558 47.8217C144.978 47.2152 143.237 46.0021 142.076 45.3955C140.916 44.7889 138.595 44.1824 136.854 44.7889C135.462 45.2742 133.566 46.2042 132.792 46.6086C132.212 47.2152 130.936 48.6709 130.471 49.6414C129.891 50.8545 129.311 53.2808 129.311 53.8873C129.311 54.4939 129.311 55.707 129.891 57.5267C130.471 59.3464 132.212 61.7726 132.792 62.3792C133.373 62.9857 136.854 64.8054 139.175 64.8054C141.496 64.8054 141.496 64.1989 143.237 63.5923C144.629 63.1071 146.525 60.5595 147.299 59.3464C146.525 59.3464 145.18 59.6462 143.628 59.7996C142.757 59.8856 140.916 59.9529 139.175 59.9529C137.783 59.9529 136.274 60.1551 135.694 59.9529L135.113 54.4939C138.595 54.4939 150.2 53.2808 154.261 53.2808C155.434 53.2808 154.261 58.1333 154.261 58.7398C154.261 59.3464 150.78 67.8382 146.138 69.6579C141.496 71.4776 140.916 71.4776 138.015 71.4776C135.113 71.4776 134.533 70.871 131.632 69.6579C129.311 68.6874 127.183 66.0185 126.41 64.8054L124.089 59.3464C123.508 57.3245 122.696 52.4316 124.089 49.0349C125.829 44.7889 125.829 45.3955 128.15 42.9692C130.471 40.543 131.632 40.543 134.533 39.3299C136.854 38.3594 140.529 38.5211 142.076 38.7233C150.149 41.1344 151.919 45.143 153.079 47.7724Z" fill="black"/>
<path d="M194.856 48.2749L195.436 38.5699H188.473V50.7012V63.4389L189.053 70.1111H194.856V61.6192V58.5864V48.2749Z" fill="black"/>
<path d="M201.818 67.8281L202.398 71.4675L208.201 71.1342V49.6313L210.522 53.3414L211.682 55.6969L212.843 57.5166L214.583 59.9428L216.904 64.1888C217.484 65.4019 218.278 66.4543 218.645 67.2216C219.225 68.4347 219.805 69.6478 220.386 70.2544H226.768C226.962 69.2434 227.349 66.9789 227.349 66.0085C227.349 64.7953 226.768 51.451 226.768 50.2379V49.0248C226.575 45.992 226.304 39.6837 226.768 38.7132C227.233 37.7427 222.707 38.3089 220.386 38.7132V48.4182V59.9428C217.871 55.8991 216.324 52.0576 213.423 47.2051C212.988 46.4777 209.361 40.9373 207.62 38.7132H205.88L203.559 39.3198H202.398L201.818 39.9264V42.9592V48.4182V55.0904V61.156V67.8281Z" fill="black"/>
<path d="M257.089 46.2025L257.11 46.2518L255.95 46.8583H250.147L249.567 46.2518C248.987 45.6452 247.246 44.4321 246.086 43.8255C244.925 43.219 242.604 42.6124 240.863 43.219C239.471 43.7042 237.575 44.6343 236.802 45.0387C236.221 45.6452 234.945 47.101 234.481 48.0715C233.9 49.2846 233.32 51.7108 233.32 52.3174C233.32 52.9239 233.32 54.1371 233.9 55.9568C234.481 57.7764 236.221 60.2027 236.802 60.8092C237.382 61.4158 240.863 63.2355 243.184 63.2355C245.505 63.2355 245.505 62.6289 247.246 62.0224C248.639 61.5371 250.534 58.9896 251.308 57.7764C250.534 57.7764 249.19 58.0762 247.638 58.2296C246.767 58.3157 244.925 58.383 243.184 58.383C241.792 58.383 240.283 58.5852 239.703 58.383L239.123 52.9239C242.604 52.9239 254.209 51.7108 258.271 51.7108C259.443 51.7108 258.271 56.5633 258.271 57.1699C258.271 57.7764 254.789 66.2683 250.147 68.088C245.505 69.9076 244.925 69.9076 242.024 69.9076C239.123 69.9076 238.542 69.3011 235.641 68.088C233.32 67.1175 231.193 64.4486 230.419 63.2355L228.098 57.7764C227.518 55.7546 226.705 50.8616 228.098 47.4649C229.839 43.219 229.839 43.8255 232.16 41.3993C234.481 38.9731 235.641 38.9731 238.542 37.7599C240.863 36.7894 244.538 36.9512 246.086 37.1534C254.158 39.5645 255.928 43.573 257.089 46.2025Z" fill="black"/>
<path d="M93.7853 70.3614L82.8938 38.5699H89.1175L96.8972 60.4592L105.196 38.5699H111.938L98.9718 70.3614H93.7853Z" fill="black"/>
<path d="M55.1188 298.273L42 331H48.5594L51.8391 322H63.318L66.5977 331H72.3372L73.1571 329.364L60.0383 298.273H55.1188Z" fill="black"/>
<path d="M210.084 295.818L196.966 328.546H203.525L206.805 319.546H218.284L221.563 328.546H227.303L228.123 326.909L215.004 295.818H210.084Z" fill="black"/>
<path d="M56.7586 308.5L54.2988 316.273L60.0383 315.455L56.7586 308.5Z" fill="white"/>
<path d="M212.544 307.682L210.084 315.454L215.824 314.636L212.544 307.682Z" fill="white"/>
<path d="M75.6169 327.422L76.2692 331L82.7913 330.672V309.533L85.4001 313.25L86.7045 315.496L88.009 317.285L89.9656 319.67L92.5744 323.844C93.2267 325.037 94.1186 326.072 94.5311 326.826C95.1833 328.018 95.8355 329.211 96.4877 329.807H103.662C103.879 328.814 104.314 326.587 104.314 325.633C104.314 324.441 103.662 311.322 103.662 310.129V308.937C103.445 305.955 103.14 299.754 103.662 298.8C104.184 297.845 99.0966 298.402 96.4877 298.8V308.34V319.67C93.6615 315.695 91.9222 311.918 88.6612 307.148C88.1723 306.433 84.0957 300.986 82.1391 298.8H80.1824L77.5736 299.396H76.2692L75.6169 299.992V302.974V308.479V314.9V320.863V327.422Z" fill="black"/>
<path d="M230.582 325.696L231.16 329.364L236.937 329.028V307.36L239.247 311.17L240.403 313.472L241.558 315.306L243.291 317.751L245.602 322.029C246.179 323.252 246.969 324.312 247.335 325.085L247.335 325.085C247.912 326.308 248.49 327.53 249.068 328.141H255.422C255.615 327.123 256 324.841 256 323.863C256 322.64 255.422 309.194 255.422 307.971V306.749C255.23 303.693 254.96 297.336 255.422 296.358C255.884 295.38 251.379 295.951 249.068 296.358V306.138V317.751C246.565 313.676 245.024 309.805 242.136 304.915C241.703 304.182 238.092 298.599 236.359 296.358H234.626L232.315 296.969H231.16L230.582 297.581V300.637V306.28V312.861V318.973V325.696Z" fill="black"/>
<path d="M110.062 329.364H116.69L115.861 309.727L123.317 329.364L128.288 328.545L134.915 308.909L135.727 328.949H142.031L141.543 313.818L140.715 298.273L132.43 298.273L124.974 319.545L117.518 298.273H109.234L110.062 329.364Z" fill="black"/>
<path d="M184.814 322.071L183.577 297.055L177.594 296.542L177.071 328.88L195.202 328.299L195.658 323L184.814 322.071Z" fill="black"/>
<path d="M159.905 298.149L160.544 299.424C160.556 299.239 160.579 299.047 160.616 298.849C161.326 295 164.524 295 165.59 295C166.656 295 169.853 296.4 169.853 299.549C169.853 302.069 167.248 303.399 165.945 303.749C165.029 303.929 163.453 303.644 162.238 302.799L174.828 327.894H167.722L163.458 321.246H152.799L149.601 329.644H142.851L149.601 310.047L151.849 304.258C151.682 304.442 151.177 304.748 149.957 305.148C148.251 305.708 146.877 304.682 146.404 304.098C145.575 303.165 144.201 300.809 145.338 298.849C146.759 296.4 147.825 296.4 149.957 296.4C151.662 296.4 152.799 298.266 153.154 299.199L153.065 301.124L154.22 298.149H159.905Z" fill="black"/>
<path d="M157.469 305.94L154.728 314.601L161.123 313.69L157.469 305.94Z" fill="white"/>
<ellipse cx="149.246" cy="300.47" rx="1.82726" ry="1.82338" fill="white"/>
<ellipse cx="165.234" cy="299.103" rx="2.28407" ry="2.27922" fill="white"/>
<path d="M301.095 157.227V202.727H288.095C287.095 202.727 284.895 201.927 284.095 198.727C283.295 195.527 287.095 192.727 289.095 191.727L286.095 190.227C285.095 189.56 282.895 187.727 282.095 185.727C281.295 183.727 283.761 181.227 285.095 180.227C283.761 180.06 280.895 178.727 280.095 174.727C279.295 170.727 283.761 167.727 286.095 166.727C284.761 166.394 282.295 164.727 283.095 160.727C283.895 156.727 295.428 156.727 301.095 157.227Z" fill="#F8D1D1"/>
<path d="M8.2016e-05 159.227V204.727H13C14 204.727 16.2 203.927 17 200.727C17.8 197.527 14 194.727 12 193.727L15.0001 192.227C16.0001 191.56 18.2001 189.727 19 187.727C19.7999 185.727 17.3333 183.227 16 182.227C17.3334 182.06 20.2001 180.727 21.0001 176.727C21.8001 172.727 17.3334 169.727 15.0001 168.727C16.3334 168.394 18.8001 166.727 18.0001 162.727C17.2001 158.727 5.66675 158.727 8.2016e-05 159.227Z" fill="#F8D1D1"/>
</svg>
