<svg fill="none" height="39" viewBox="0 0 114 39" width="114" xmlns="http://www.w3.org/2000/svg" xmlns:xlink="http://www.w3.org/1999/xlink"><filter id="a" color-interpolation-filters="sRGB" filterUnits="userSpaceOnUse" height="38.9833" width="113.324" x="0" y=".000061"><feFlood flood-opacity="0" result="BackgroundImageFix"/><feColorMatrix in="SourceAlpha" type="matrix" values="0 0 0 0 0 0 0 0 0 0 0 0 0 0 0 0 0 0 127 0"/><feOffset dx="1" dy="1"/><feGaussianBlur stdDeviation="2"/><feColorMatrix type="matrix" values="0 0 0 0 0 0 0 0 0 0 0 0 0 0 0 0 0 0 0.5 0"/><feBlend in2="BackgroundImageFix" mode="normal" result="effect1_dropShadow"/><feBlend in="SourceGraphic" in2="effect1_dropShadow" mode="normal" result="shape"/></filter><mask id="b" height="29" maskUnits="userSpaceOnUse" width="30" x="79" y="5"><path clip-rule="evenodd" d="m79.5393 5.99738h28.7847v27.98602h-28.7847z" fill="#fff" fill-rule="evenodd"/></mask><mask id="c" height="28" maskUnits="userSpaceOnUse" width="28" x="48" y="6"><path clip-rule="evenodd" d="m48.5664 6.349h27.3023v27.6344h-27.3023z" fill="#fff" fill-rule="evenodd"/></mask><g filter="url(#a)"><path clip-rule="evenodd" d="m31.9816 3.00006c0 3.28897-2.6467 5.9578-5.9201 5.96829-5.195.01708-11.9253.02637-11.9253.02637-2.8549 0-5.16985 2.32598-5.16985 5.19738v13.5839c0 3.3121-2.67292 5.9947-5.96635 5.9947v-19.5786c0-6.1811 4.98698-11.19204 11.1392-11.19204z" fill="#fefefe" fill-rule="evenodd"/><path clip-rule="evenodd" d="m20.9364 20.9978h-8.9749v-2.2653c0-2.0595 1.662-3.7293 3.7117-3.7293h11.2296c0 3.3108-2.6711 5.9946-5.9664 5.9946" fill="#fefefe" fill-rule="evenodd"/><g mask="url(#b)"><path clip-rule="evenodd" d="m108.324 5.99738c0 3.31085-2.671 5.99462-5.966 5.99462h-4.36c-.5975 0-1.0817.4865-1.0817 1.0866v14.9102c0 3.3105-2.6711 5.9947-5.9663 5.9947v-20.9049c0-.6001-.4842-1.0866-1.0814-1.0866h-4.3629c-3.2953 0-5.9664-2.68377-5.9664-5.99462z" fill="#fefefe" fill-rule="evenodd"/></g><g mask="url(#c)"><path clip-rule="evenodd" d="m66.4932 33.9835h-17.9268c0-3.3109 2.6711-5.9947 5.9664-5.9947h11.9604c1.173 0 2.124-.9555 2.124-2.1344 0-1.1785-.951-2.1341-2.124-2.1341h-7.5782c-4.7742 0-8.6446-3.8887-8.6446-8.6859 0-4.797 3.8704-8.6854 8.6446-8.6854h16.9537c0 3.31055-2.6711 5.9947-5.9663 5.9947h-10.9874c-1.479 0-2.6782 1.2046-2.6782 2.6907 0 1.4863 1.1992 2.6913 2.6782 2.6913h7.5782c4.4682 0 8.0904 3.6393 8.0904 8.1287s-3.6222 8.1291-8.0904 8.1291" fill="#fefefe" fill-rule="evenodd"/></g><g clip-rule="evenodd" fill="#fefefe" fill-rule="evenodd"><path d="m41.155 17.8527c.5635-.9804 1.9725-.9804 2.5363 0l1.4167 2.4662 1.417 2.4656c.5638.981-.1408 2.2069-1.2681 2.2069h-2.8338-2.834c-1.127 0-1.8316-1.2259-1.2681-2.2069l1.417-2.4656z"/><path d="m22.6174 33.2956 14.4338-27.63477c2.9178 1.53853 4.0419 5.16197 2.5106 8.09397l-8.889 17.0183c-1.5312 2.9314-5.1376 4.0611-8.0554 2.5225"/></g></g></svg>