<svg fill="none" height="40" viewBox="0 0 259 40" width="259" xmlns="http://www.w3.org/2000/svg" xmlns:xlink="http://www.w3.org/1999/xlink"><filter id="a" color-interpolation-filters="sRGB" filterUnits="userSpaceOnUse" height="38.9396" width="258.888" x="0" y=".295593"><feFlood flood-opacity="0" result="BackgroundImageFix"/><feColorMatrix in="SourceAlpha" type="matrix" values="0 0 0 0 0 0 0 0 0 0 0 0 0 0 0 0 0 0 127 0"/><feOffset dx="1" dy="1"/><feGaussianBlur stdDeviation="2"/><feColorMatrix type="matrix" values="0 0 0 0 0 0 0 0 0 0 0 0 0 0 0 0 0 0 0.5 0"/><feBlend in2="BackgroundImageFix" mode="normal" result="effect1_dropShadow"/><feBlend in="SourceGraphic" in2="effect1_dropShadow" mode="normal" result="shape"/></filter><mask id="b" height="29" maskUnits="userSpaceOnUse" width="30" x="139" y="6"><path clip-rule="evenodd" d="m139.85 6.63531h28.942v27.59989h-28.942z" fill="#fff" fill-rule="evenodd"/></mask><mask id="c" height="29" maskUnits="userSpaceOnUse" width="28" x="3" y="6"><path clip-rule="evenodd" d="m3 6.98212h27.4514v27.25308h-27.4514z" fill="#fff" fill-rule="evenodd"/></mask><mask id="d" height="7" maskUnits="userSpaceOnUse" width="17" x="34" y="28"><path clip-rule="evenodd" d="m34.2277 28.3234h16.6033v5.9118h-16.6033z" fill="#fff" fill-rule="evenodd"/></mask><mask id="e" height="29" maskUnits="userSpaceOnUse" width="18" x="172" y="6"><path clip-rule="evenodd" d="m172.581 6.63452h17.241v27.60068h-17.241z" fill="#fff" fill-rule="evenodd"/></mask><mask id="f" height="32" maskUnits="userSpaceOnUse" width="7" x="212" y="3"><path clip-rule="evenodd" d="m212.511 3.29602h5.999v30.93918h-5.999z" fill="#fff" fill-rule="evenodd"/></mask><mask id="g" height="8" maskUnits="userSpaceOnUse" width="7" x="223" y="27"><path clip-rule="evenodd" d="m223.653 27.94h5.999v6.2952h-5.999z" fill="#fff" fill-rule="evenodd"/></mask><mask id="h" height="32" maskUnits="userSpaceOnUse" width="20" x="234" y="3"><path clip-rule="evenodd" d="m234.103 3.29559h19.785v30.93961h-19.785z" fill="#fff" fill-rule="evenodd"/></mask><g filter="url(#a)"><g mask="url(#b)"><path clip-rule="evenodd" d="m168.792 6.63531c0 3.26517-2.685 5.91199-5.999 5.91199h-4.383c-.601 0-1.088.4797-1.088 1.0715v14.7045c0 3.2649-2.685 5.912-5.999 5.912v-20.6165c0-.5918-.486-1.0715-1.087-1.0715h-4.387c-3.313 0-5.999-2.64682-5.999-5.91199z" fill="#fefefe" fill-rule="evenodd"/></g><g mask="url(#c)"><path clip-rule="evenodd" d="m21.0247 34.2353h-18.02476c0-3.2652 2.68573-5.9119 5.99895-5.9119h12.02581c1.1797 0 2.1359-.9424 2.1359-2.105 0-1.1623-.9562-2.1046-2.1359-2.1046h-7.6193c-4.80034 0-8.69186-3.8351-8.69186-8.5662 0-4.7307 3.89152-8.56548 8.69186-8.56548h17.046c0 3.26488-2.6857 5.91198-5.9989 5.91198h-11.0471c-1.4874 0-2.6929 1.188-2.6929 2.6535 0 1.4659 1.2055 2.6542 2.6929 2.6542h7.6193c4.4929 0 8.1349 3.5892 8.1349 8.0166 0 4.4275-3.642 8.0169-8.1349 8.0169" fill="#fefefe" fill-rule="evenodd"/></g><path clip-rule="evenodd" d="m43.2516 23.5646h-9.0239v-2.2341c0-2.0314 1.671-3.6779 3.7319-3.6779h11.2909c0 3.2649-2.6857 5.912-5.9989 5.912" fill="#fefefe" fill-rule="evenodd"/><path clip-rule="evenodd" d="m44.832 12.8939h-10.6043v-5.91191h16.6033c0 3.26491-2.6858 5.91191-5.999 5.91191" fill="#fefefe" fill-rule="evenodd"/><g mask="url(#d)"><path clip-rule="evenodd" d="m50.831 34.2353h-16.6033v-5.9119h10.6044c3.3132 0 5.9989 2.6467 5.9989 5.9119" fill="#fefefe" fill-rule="evenodd"/></g><g clip-rule="evenodd" fill="#fefefe" fill-rule="evenodd"><path d="m77.3466 34.235h-9.8779c-7.6367 0-13.827-6.1008-13.827-13.6264v-.0003c0-7.5256 6.1903-13.62618 13.827-13.62618h9.8779c0 3.26518-2.686 5.91198-5.999 5.91198h-3.8789c-4.3234 0-7.828 3.4537-7.828 7.7142 0 4.2607 3.5046 7.7148 7.828 7.7148h3.8789c3.313 0 5.999 2.6468 5.999 5.9119"/><path d="m91.6649 34.235c-5.7129 0-10.3443-4.564-10.3443-10.1942v-17.05868c3.3132 0 5.9989 2.64678 5.9989 5.91198v10.4275c0 2.365 1.9455 4.2823 4.3454 4.2823 2.4001 0 4.3453-1.9173 4.3453-4.2823v-10.4275c0-3.2652 2.686-5.91198 5.9988-5.91198v17.05868c0 5.6302-4.631 10.1942-10.3441 10.1942"/><path d="m129.893 34.235v-21.3409c0-3.2652 2.686-5.91198 5.999-5.91198v21.34098c0 3.2651-2.686 5.9119-5.999 5.9119"/><path d="m115.982 30.7141-7.888-11.9853c-.615-.9332.065-2.1664 1.194-2.1664h7.615c1.028 0 1.861-.8212 1.861-1.8342 0-1.0133-.833-1.8342-1.861-1.8342-2.604 0-4.714-2.0801-4.714-4.6459v-1.26604h5.52c3.896 0 7.054 3.11204 7.054 6.95094v1.59c0 3.8393-3.158 6.9513-7.054 6.9513l6.571 9.9823c-2.78 1.7769-6.495.9968-8.298-1.7425"/></g><g mask="url(#e)"><path clip-rule="evenodd" d="m189.822 20.4398v6.4733c0 4.0441-3.327 7.3222-7.43 7.3222v-13.6657l-9.811-12.73142c2.636-1.97459 6.4-1.46616 8.404 1.13214z" fill="#fefefe" fill-rule="evenodd"/></g><path clip-rule="evenodd" d="m191.411 18.2017 5.893-10.8277c-2.9-1.57938-6.55-.54331-8.153 2.31424l-1.783 3.50166z" fill="#fefefe" fill-rule="evenodd"/><g mask="url(#f)"><path clip-rule="evenodd" d="m212.511 34.2353v-25.02733c0-3.26517 2.686-5.91195 5.999-5.91195v25.02738c0 3.2648-2.686 5.9119-5.999 5.9119" fill="#fefefe" fill-rule="evenodd"/></g><g mask="url(#g)"><path clip-rule="evenodd" d="m226.652 34.2353c-1.656 0-2.999-1.3236-2.999-2.9559v-.3834c0-1.6326 1.343-2.956 2.999-2.956 1.657 0 3 1.3234 3 2.956v.3834c0 1.6323-1.343 2.9559-3 2.9559" fill="#fefefe" fill-rule="evenodd"/></g><g mask="url(#h)"><path clip-rule="evenodd" d="m243.996 28.2864c2.15 0 3.893-1.718 3.893-3.8374v-11.3675c0-2.1189-1.743-3.83719-3.893-3.83719-2.151 0-3.894 1.71829-3.894 3.83719v11.3675c0 2.1194 1.743 3.8374 3.894 3.8374m0 5.9489c-5.464 0-9.893-4.3651-9.893-9.7494v-11.4411c0-5.3843 4.429-9.74939 9.893-9.74939 5.463 0 9.892 4.36509 9.892 9.74939v11.4411c0 5.3843-4.429 9.7494-9.892 9.7494" fill="#fefefe" fill-rule="evenodd"/></g></g></svg>